<svg width="56" height="57" viewBox="0 0 56 57" fill="none" xmlns="http://www.w3.org/2000/svg">
    <rect x="1.94431" y="2.45396" width="51.8483" height="51.8483" rx="9.72156" fill="#001327" stroke="#007AFF"
        stroke-width="3.88863" />
    <path
        d="M11.4551 8.77661C11.7665 6.90368 13.5373 5.63784 15.4102 5.94927L23.2603 7.25458L25.7076 7.66152C27.5805 7.97295 28.8463 9.74372 28.5349 11.6166L28.0501 14.5319L26.3759 24.6009C26.0644 26.4738 24.2937 27.7396 22.4207 27.4282L12.1234 25.716C10.2505 25.4045 8.98466 23.6338 9.29609 21.7608L11.4551 8.77661Z"
        fill="#FF7633" />
    <path
        d="M7.77728 10.9087C7.77728 9.0101 9.31644 7.47095 11.2151 7.47095H20.096V11.1952C20.096 12.6719 21.2932 13.8691 22.7699 13.8691H26.4942V24.087C26.4942 25.9856 24.955 27.5248 23.0564 27.5248H11.2151C9.31644 27.5248 7.77728 25.9856 7.77728 24.087V10.9087Z"
        fill="url(#paint0_linear_0_1431)" />
    <g filter="url(#filter0_di_0_1431)">
        <path d="M26.4943 13.8692L20.0962 7.47107V11.1953C20.0962 12.6721 21.2933 13.8692 22.77 13.8692H26.4943Z"
            fill="url(#paint1_linear_0_1431)" shape-rendering="crispEdges" />
    </g>
    <g filter="url(#filter1_d_0_1431)">
        <path
            d="M13.8607 17.3472C13.0713 17.3472 11.6313 19.6863 11.01 20.8558H23.0706C21.9742 19.1746 19.584 15.8123 18.7946 15.8123C17.8078 15.8123 16.4921 18.5533 15.615 18.5533C14.7379 18.5533 14.8475 17.3472 13.8607 17.3472Z"
            fill="white" />
        <circle cx="14.0804" cy="15.8124" r="0.877133" fill="white" />
    </g>
    <path
        d="M33.4906 8.77665C33.8021 6.9037 35.5729 5.63784 37.4458 5.94928L45.296 7.25461L47.7432 7.66155C49.6162 7.97298 50.8821 9.74377 50.5706 11.6167L50.0859 14.532L48.4116 24.6011C48.1001 26.474 46.3293 27.7399 44.4564 27.4285L34.1589 25.7162C32.286 25.4048 31.0201 23.634 31.3316 21.761L33.4906 8.77665Z"
        fill="#57FF9F" />
    <path
        d="M29.8128 10.9088C29.8128 9.01012 31.352 7.47095 33.2506 7.47095H42.1317V11.1953C42.1317 12.672 43.3289 13.8691 44.8056 13.8691H48.5299V24.0872C48.5299 25.9858 46.9907 27.525 45.0921 27.525H33.2506C31.352 27.525 29.8128 25.9858 29.8128 24.0872V10.9088Z"
        fill="url(#paint2_linear_0_1431)" />
    <g filter="url(#filter2_di_0_1431)">
        <path d="M48.5301 13.8693L42.1319 7.47107V11.1954C42.1319 12.6721 43.329 13.8693 44.8057 13.8693H48.5301Z"
            fill="url(#paint3_linear_0_1431)" shape-rendering="crispEdges" />
    </g>
    <g filter="url(#filter3_d_0_1431)">
        <path
            d="M40.6048 18.0899C40.2228 17.8694 40.2228 17.318 40.6048 17.0975L43.4697 15.4434C43.8517 15.2229 44.3291 15.4986 44.3291 15.9397L44.3291 19.2477C44.3291 19.6888 43.8517 19.9645 43.4697 19.7439L40.6048 18.0899Z"
            fill="url(#paint4_linear_0_1431)" />
        <rect x="35.1614" y="14.1561" width="7.06666" height="6.68468" rx="1.52793" fill="white" />
    </g>
    <path
        d="M11.4554 31.1213C11.7668 29.2483 13.5376 27.9824 15.4105 28.2939L23.2607 29.5992L25.708 30.0062C27.5809 30.3176 28.8468 32.0884 28.5353 33.9613L28.0506 36.8766L26.3763 46.9457C26.0649 48.8187 24.2941 50.0845 22.4211 49.7731L12.1237 48.0608C10.2507 47.7494 8.98487 45.9786 9.2963 44.1056L11.4554 31.1213Z"
        fill="#84C5FF" />
    <path
        d="M7.77728 33.2529C7.77728 31.3542 9.31645 29.8151 11.2151 29.8151H20.0962V33.5394C20.0962 35.0161 21.2933 36.2133 22.7701 36.2133H26.4944V46.4313C26.4944 48.3299 24.9552 49.8691 23.0566 49.8691H11.2151C9.31646 49.8691 7.77728 48.3299 7.77728 46.4313V33.2529Z"
        fill="url(#paint5_linear_0_1431)" />
    <g filter="url(#filter4_di_0_1431)">
        <path d="M26.4946 36.2128L20.0964 29.8146V33.5389C20.0964 35.0156 21.2935 36.2128 22.7703 36.2128H26.4946Z"
            fill="url(#paint6_linear_0_1431)" shape-rendering="crispEdges" />
    </g>
    <g filter="url(#filter5_d_0_1431)">
        <path
            d="M19.532 35.4316L14.6595 36.2456C14.6438 36.2481 14.629 36.2527 14.6147 36.2582H14.4387C14.3187 36.2582 14.2233 36.3542 14.2233 36.4725V42.0425C14.0332 41.9326 13.8121 41.8699 13.5765 41.8699C12.8622 41.8699 12.283 42.4476 12.283 43.1605C12.283 43.8734 12.8622 44.451 13.5765 44.451C14.2909 44.451 14.8701 43.8733 14.8701 43.1605C14.8701 43.1082 14.8669 43.0569 14.861 43.0068C14.8669 42.987 14.8701 42.9663 14.8701 42.9444V38.4145L19.3975 37.6161V40.7515C19.2074 40.642 18.9863 40.5788 18.7507 40.5788C18.0364 40.5788 17.4572 41.157 17.4572 41.8699C17.4572 42.5823 18.0364 43.1605 18.7507 43.1605C19.4651 43.1605 20.0443 42.5823 20.0443 41.8699C20.0443 41.8177 20.0411 41.7663 20.0352 41.7157C20.0411 41.6959 20.0443 41.6753 20.0443 41.6534V35.6308C20.0443 35.5255 19.9678 35.4375 19.8672 35.4198C19.832 35.3979 19.7878 35.3891 19.7392 35.3971L19.6247 35.4164H19.6129C19.5842 35.4164 19.5569 35.4219 19.532 35.4316Z"
            fill="white" />
    </g>
    <path
        d="M30.7675 33.7604C30.7675 31.8616 32.3068 30.3223 34.2056 30.3223H43.0874V34.0469C43.0874 35.5237 44.2846 36.721 45.7614 36.721H49.4861V46.9398C49.4861 48.8386 47.9468 50.3779 46.048 50.3779H34.2056C32.3068 50.3779 30.7675 48.8386 30.7675 46.9398V33.7604Z"
        fill="url(#paint7_linear_0_1431)" />
    <g filter="url(#filter6_di_0_1431)">
        <path d="M49.4858 36.721L43.0871 30.3223V34.0469C43.0871 35.5237 44.2844 36.721 45.7612 36.721H49.4858Z"
            fill="#FFE68D" />
    </g>
    <g filter="url(#filter7_i_0_1431)">
        <rect x="29.8128" y="40.2698" width="20.6286" height="7.44923" rx="1.52805" fill="#FFAC26"
            fill-opacity="0.33" />
    </g>
    <rect x="35.5426" y="33.7759" width="6.6852" height="3.62911" rx="0.955029" fill="#FFC850" />
    <rect x="32.8683" y="32.2474" width="6.6852" height="3.62911" rx="0.955029" fill="#FFE184" />
    <path
        d="M35.117 45.8429V41.9533H36.6515C36.9465 41.9533 37.1979 42.0097 37.4055 42.1224C37.6131 42.2338 37.7714 42.3889 37.8803 42.5877C37.9905 42.7852 38.0455 43.0131 38.0455 43.2714C38.0455 43.5297 37.9898 43.7576 37.8784 43.9551C37.767 44.1526 37.6056 44.3064 37.3941 44.4166C37.1839 44.5267 36.9294 44.5818 36.6306 44.5818H35.6525V43.9228H36.4977C36.6559 43.9228 36.7864 43.8956 36.8889 43.8411C36.9927 43.7854 37.07 43.7088 37.1206 43.6113C37.1725 43.5126 37.1985 43.3993 37.1985 43.2714C37.1985 43.1422 37.1725 43.0295 37.1206 42.9333C37.07 42.8358 36.9927 42.7605 36.8889 42.7073C36.7851 42.6529 36.6534 42.6256 36.4939 42.6256H35.9393V45.8429H35.117ZM39.9585 45.8429H38.5797V41.9533H39.9699C40.3611 41.9533 40.6979 42.0312 40.9803 42.1869C41.2626 42.3414 41.4798 42.5636 41.6317 42.8535C41.7849 43.1435 41.8615 43.4904 41.8615 43.8943C41.8615 44.2995 41.7849 44.6477 41.6317 44.9389C41.4798 45.2301 41.2614 45.4536 40.9765 45.6093C40.6929 45.765 40.3535 45.8429 39.9585 45.8429ZM39.402 45.1383H39.9243C40.1674 45.1383 40.3719 45.0952 40.5378 45.0091C40.7049 44.9218 40.8302 44.7869 40.9138 44.6046C40.9986 44.421 41.0411 44.1843 41.0411 43.8943C41.0411 43.6069 40.9986 43.372 40.9138 43.1897C40.8302 43.0074 40.7055 42.8732 40.5397 42.7871C40.3738 42.701 40.1693 42.6579 39.9262 42.6579H39.402V45.1383ZM42.4707 45.8429V41.9533H45.046V42.6313H43.293V43.5582H44.8751V44.2362H43.293V45.8429H42.4707Z"
        fill="white" />
    <defs>
        <filter id="filter0_di_0_1431" x="18.5683" y="6.70711" width="8.69" height="8.68993"
            filterUnits="userSpaceOnUse" color-interpolation-filters="sRGB">
            <feFlood flood-opacity="0" result="BackgroundImageFix" />
            <feColorMatrix in="SourceAlpha" type="matrix" values="0 0 0 0 0 0 0 0 0 0 0 0 0 0 0 0 0 0 127 0"
                result="hardAlpha" />
            <feOffset dx="-0.381977" dy="0.381977" />
            <feGaussianBlur stdDeviation="0.572966" />
            <feComposite in2="hardAlpha" operator="out" />
            <feColorMatrix type="matrix" values="0 0 0 0 0 0 0 0 0 0 0 0 0 0 0 0 0 0 0.1 0" />
            <feBlend mode="normal" in2="BackgroundImageFix" result="effect1_dropShadow_0_1431" />
            <feBlend mode="normal" in="SourceGraphic" in2="effect1_dropShadow_0_1431" result="shape" />
            <feColorMatrix in="SourceAlpha" type="matrix" values="0 0 0 0 0 0 0 0 0 0 0 0 0 0 0 0 0 0 127 0"
                result="hardAlpha" />
            <feOffset dx="0.381977" dy="0.763954" />
            <feGaussianBlur stdDeviation="0.477472" />
            <feComposite in2="hardAlpha" operator="arithmetic" k2="-1" k3="1" />
            <feColorMatrix type="matrix" values="0 0 0 0 1 0 0 0 0 1 0 0 0 0 1 0 0 0 0.25 0" />
            <feBlend mode="normal" in2="shape" result="effect2_innerShadow_0_1431" />
        </filter>
        <filter id="filter1_d_0_1431" x="10.2461" y="14.3623" width="13.5885" height="7.44832"
            filterUnits="userSpaceOnUse" color-interpolation-filters="sRGB">
            <feFlood flood-opacity="0" result="BackgroundImageFix" />
            <feColorMatrix in="SourceAlpha" type="matrix" values="0 0 0 0 0 0 0 0 0 0 0 0 0 0 0 0 0 0 127 0"
                result="hardAlpha" />
            <feOffset dy="0.190989" />
            <feGaussianBlur stdDeviation="0.381977" />
            <feComposite in2="hardAlpha" operator="out" />
            <feColorMatrix type="matrix" values="0 0 0 0 0.821094 0 0 0 0 0.224825 0 0 0 0 0.224825 0 0 0 0.6 0" />
            <feBlend mode="normal" in2="BackgroundImageFix" result="effect1_dropShadow_0_1431" />
            <feBlend mode="normal" in="SourceGraphic" in2="effect1_dropShadow_0_1431" result="shape" />
        </filter>
        <filter id="filter2_di_0_1431" x="40.6039" y="6.70711" width="8.69009" height="8.69009"
            filterUnits="userSpaceOnUse" color-interpolation-filters="sRGB">
            <feFlood flood-opacity="0" result="BackgroundImageFix" />
            <feColorMatrix in="SourceAlpha" type="matrix" values="0 0 0 0 0 0 0 0 0 0 0 0 0 0 0 0 0 0 127 0"
                result="hardAlpha" />
            <feOffset dx="-0.381982" dy="0.381982" />
            <feGaussianBlur stdDeviation="0.572973" />
            <feComposite in2="hardAlpha" operator="out" />
            <feColorMatrix type="matrix" values="0 0 0 0 0 0 0 0 0 0 0 0 0 0 0 0 0 0 0.1 0" />
            <feBlend mode="normal" in2="BackgroundImageFix" result="effect1_dropShadow_0_1431" />
            <feBlend mode="normal" in="SourceGraphic" in2="effect1_dropShadow_0_1431" result="shape" />
            <feColorMatrix in="SourceAlpha" type="matrix" values="0 0 0 0 0 0 0 0 0 0 0 0 0 0 0 0 0 0 127 0"
                result="hardAlpha" />
            <feOffset dx="0.381982" dy="0.763964" />
            <feGaussianBlur stdDeviation="0.477477" />
            <feComposite in2="hardAlpha" operator="arithmetic" k2="-1" k3="1" />
            <feColorMatrix type="matrix" values="0 0 0 0 1 0 0 0 0 1 0 0 0 0 1 0 0 0 0.25 0" />
            <feBlend mode="normal" in2="shape" result="effect2_innerShadow_0_1431" />
        </filter>
        <filter id="filter3_d_0_1431" x="34.3974" y="13.5832" width="10.6957" height="8.21262"
            filterUnits="userSpaceOnUse" color-interpolation-filters="sRGB">
            <feFlood flood-opacity="0" result="BackgroundImageFix" />
            <feColorMatrix in="SourceAlpha" type="matrix" values="0 0 0 0 0 0 0 0 0 0 0 0 0 0 0 0 0 0 127 0"
                result="hardAlpha" />
            <feOffset dy="0.190991" />
            <feGaussianBlur stdDeviation="0.381982" />
            <feComposite in2="hardAlpha" operator="out" />
            <feColorMatrix type="matrix" values="0 0 0 0 0.224825 0 0 0 0 0.821094 0 0 0 0 0.480369 0 0 0 0.6 0" />
            <feBlend mode="normal" in2="BackgroundImageFix" result="effect1_dropShadow_0_1431" />
            <feBlend mode="normal" in="SourceGraphic" in2="effect1_dropShadow_0_1431" result="shape" />
        </filter>
        <filter id="filter4_di_0_1431" x="18.5685" y="29.0506" width="8.69009" height="8.69009"
            filterUnits="userSpaceOnUse" color-interpolation-filters="sRGB">
            <feFlood flood-opacity="0" result="BackgroundImageFix" />
            <feColorMatrix in="SourceAlpha" type="matrix" values="0 0 0 0 0 0 0 0 0 0 0 0 0 0 0 0 0 0 127 0"
                result="hardAlpha" />
            <feOffset dx="-0.381982" dy="0.381982" />
            <feGaussianBlur stdDeviation="0.572973" />
            <feComposite in2="hardAlpha" operator="out" />
            <feColorMatrix type="matrix" values="0 0 0 0 0 0 0 0 0 0 0 0 0 0 0 0 0 0 0.1 0" />
            <feBlend mode="normal" in2="BackgroundImageFix" result="effect1_dropShadow_0_1431" />
            <feBlend mode="normal" in="SourceGraphic" in2="effect1_dropShadow_0_1431" result="shape" />
            <feColorMatrix in="SourceAlpha" type="matrix" values="0 0 0 0 0 0 0 0 0 0 0 0 0 0 0 0 0 0 127 0"
                result="hardAlpha" />
            <feOffset dx="0.381982" dy="0.763964" />
            <feGaussianBlur stdDeviation="0.477477" />
            <feComposite in2="hardAlpha" operator="arithmetic" k2="-1" k3="1" />
            <feColorMatrix type="matrix" values="0 0 0 0 1 0 0 0 0 1 0 0 0 0 1 0 0 0 0.25 0" />
            <feBlend mode="normal" in2="shape" result="effect2_innerShadow_0_1431" />
        </filter>
        <filter id="filter5_d_0_1431" x="11.519" y="34.8212" width="9.28919" height="10.5848"
            filterUnits="userSpaceOnUse" color-interpolation-filters="sRGB">
            <feFlood flood-opacity="0" result="BackgroundImageFix" />
            <feColorMatrix in="SourceAlpha" type="matrix" values="0 0 0 0 0 0 0 0 0 0 0 0 0 0 0 0 0 0 127 0"
                result="hardAlpha" />
            <feOffset dy="0.190991" />
            <feGaussianBlur stdDeviation="0.381982" />
            <feComposite in2="hardAlpha" operator="out" />
            <feColorMatrix type="matrix" values="0 0 0 0 0.416589 0 0 0 0 0.696383 0 0 0 0 0.946045 0 0 0 1 0" />
            <feBlend mode="normal" in2="BackgroundImageFix" result="effect1_dropShadow_0_1431" />
            <feBlend mode="normal" in="SourceGraphic" in2="effect1_dropShadow_0_1431" result="shape" />
        </filter>
        <filter id="filter6_di_0_1431" x="41.5591" y="29.5582" width="8.69075" height="8.69075"
            filterUnits="userSpaceOnUse" color-interpolation-filters="sRGB">
            <feFlood flood-opacity="0" result="BackgroundImageFix" />
            <feColorMatrix in="SourceAlpha" type="matrix" values="0 0 0 0 0 0 0 0 0 0 0 0 0 0 0 0 0 0 127 0"
                result="hardAlpha" />
            <feOffset dx="-0.382012" dy="0.382012" />
            <feGaussianBlur stdDeviation="0.573017" />
            <feComposite in2="hardAlpha" operator="out" />
            <feColorMatrix type="matrix" values="0 0 0 0 0 0 0 0 0 0 0 0 0 0 0 0 0 0 0.1 0" />
            <feBlend mode="normal" in2="BackgroundImageFix" result="effect1_dropShadow_0_1431" />
            <feBlend mode="normal" in="SourceGraphic" in2="effect1_dropShadow_0_1431" result="shape" />
            <feColorMatrix in="SourceAlpha" type="matrix" values="0 0 0 0 0 0 0 0 0 0 0 0 0 0 0 0 0 0 127 0"
                result="hardAlpha" />
            <feOffset dx="0.382012" dy="0.764023" />
            <feGaussianBlur stdDeviation="0.477515" />
            <feComposite in2="hardAlpha" operator="arithmetic" k2="-1" k3="1" />
            <feColorMatrix type="matrix" values="0 0 0 0 1 0 0 0 0 1 0 0 0 0 1 0 0 0 0.25 0" />
            <feBlend mode="normal" in2="shape" result="effect2_innerShadow_0_1431" />
        </filter>
        <filter id="filter7_i_0_1431" x="29.8128" y="40.2698" width="20.6286" height="7.44922"
            filterUnits="userSpaceOnUse" color-interpolation-filters="sRGB">
            <feFlood flood-opacity="0" result="BackgroundImageFix" />
            <feBlend mode="normal" in="SourceGraphic" in2="BackgroundImageFix" result="shape" />
            <feColorMatrix in="SourceAlpha" type="matrix" values="0 0 0 0 0 0 0 0 0 0 0 0 0 0 0 0 0 0 127 0"
                result="hardAlpha" />
            <feMorphology radius="0.955029" operator="erode" in="SourceAlpha" result="effect1_innerShadow_0_1431" />
            <feOffset />
            <feGaussianBlur stdDeviation="0.573017" />
            <feComposite in2="hardAlpha" operator="arithmetic" k2="-1" k3="1" />
            <feColorMatrix type="matrix" values="0 0 0 0 1 0 0 0 0 1 0 0 0 0 1 0 0 0 0.37 0" />
            <feBlend mode="normal" in2="shape" result="effect1_innerShadow_0_1431" />
        </filter>
        <linearGradient id="paint0_linear_0_1431" x1="7.77728" y1="7.47095" x2="26.4942" y2="27.5248"
            gradientUnits="userSpaceOnUse">
            <stop stop-color="#FFF4F4" />
            <stop offset="0.5" stop-color="#FF5757" stop-opacity="0.2" />
            <stop offset="1" stop-color="white" />
        </linearGradient>
        <linearGradient id="paint1_linear_0_1431" x1="20.0962" y1="7.47107" x2="26.0254" y2="14.2776"
            gradientUnits="userSpaceOnUse">
            <stop stop-color="white" stop-opacity="0.69" />
            <stop offset="0.5" stop-color="white" stop-opacity="0" />
            <stop offset="1" stop-color="white" stop-opacity="0.68" />
        </linearGradient>
        <linearGradient id="paint2_linear_0_1431" x1="29.8128" y1="7.47095" x2="48.5299" y2="27.525"
            gradientUnits="userSpaceOnUse">
            <stop stop-color="#F4FFF8" />
            <stop offset="0.5" stop-color="#57FF9F" stop-opacity="0.2" />
            <stop offset="1" stop-color="white" />
        </linearGradient>
        <linearGradient id="paint3_linear_0_1431" x1="42.1319" y1="7.47107" x2="48.0612" y2="14.2777"
            gradientUnits="userSpaceOnUse">
            <stop stop-color="white" stop-opacity="0.69" />
            <stop offset="0.5" stop-color="white" stop-opacity="0" />
            <stop offset="1" stop-color="white" stop-opacity="0.68" />
        </linearGradient>
        <linearGradient id="paint4_linear_0_1431" x1="39.7454" y1="17.5937" x2="45.8571" y2="17.5937"
            gradientUnits="userSpaceOnUse">
            <stop stop-color="white" stop-opacity="0" />
            <stop offset="0.677413" stop-color="white" />
            <stop offset="1" stop-color="white" />
        </linearGradient>
        <linearGradient id="paint5_linear_0_1431" x1="7.77728" y1="29.8151" x2="26.4944" y2="49.8691"
            gradientUnits="userSpaceOnUse">
            <stop stop-color="#F4FFF8" />
            <stop offset="0.0001" stop-color="#F4FCFF" />
            <stop offset="0.5" stop-color="#57D7FF" stop-opacity="0.2" />
            <stop offset="1" stop-color="white" />
        </linearGradient>
        <linearGradient id="paint6_linear_0_1431" x1="20.0964" y1="29.8146" x2="26.0257" y2="36.6212"
            gradientUnits="userSpaceOnUse">
            <stop stop-color="white" stop-opacity="0.69" />
            <stop offset="0.5" stop-color="white" stop-opacity="0" />
            <stop offset="1" stop-color="white" stop-opacity="0.68" />
        </linearGradient>
        <linearGradient id="paint7_linear_0_1431" x1="30.7675" y1="30.3223" x2="49.4861" y2="50.3779"
            gradientUnits="userSpaceOnUse">
            <stop stop-color="#FFD557" />
            <stop offset="1" stop-color="#FF8C00" />
        </linearGradient>
    </defs>
</svg>