<svg width="33" height="33" viewBox="0 0 33 33" fill="none" xmlns="http://www.w3.org/2000/svg">
    <circle cx="16.5" cy="16.5" r="16" fill="#F0F0F0" stroke="#E8E8E8" />
    <path fill-rule="evenodd" clip-rule="evenodd"
        d="M11.1215 10.7071C11.512 10.3166 12.1452 10.3166 12.5357 10.7071L22.1215 20.2929C22.512 20.6834 22.512 21.3166 22.1215 21.7071C21.731 22.0976 21.0978 22.0976 20.7073 21.7071L11.1215 12.1213C10.731 11.7308 10.731 11.0976 11.1215 10.7071Z"
        fill="#5F6163" />
    <path fill-rule="evenodd" clip-rule="evenodd"
        d="M21.7071 10.7071C21.3166 10.3166 20.6834 10.3166 20.2929 10.7071L10.7071 20.2929C10.3166 20.6834 10.3166 21.3166 10.7071 21.7071C11.0976 22.0976 11.7308 22.0976 12.1213 21.7071L21.7071 12.1213C22.0976 11.7308 22.0976 11.0976 21.7071 10.7071Z"
        fill="#5F6163" />
</svg>