<svg width="70" height="79" viewBox="0 0 70 79" fill="none" xmlns="http://www.w3.org/2000/svg">
  <path d="M1.36371 59.0513V20.038V18.7795H5.13925L30.3095 23.8135L37.8606 64.0853L35.3435 77.9287L1.36371 59.0513Z"
    fill="white" />
  <path fill-rule="evenodd" clip-rule="evenodd"
    d="M0.111078 24.5347C0.179921 23.8876 0.760331 23.4188 1.40746 23.4877C4.54029 23.8209 8.5565 25.2253 12.5799 28.1444C13.1066 28.5266 13.2238 29.2634 12.8416 29.7902C12.4595 30.3169 11.7226 30.4341 11.1959 30.0519C7.47146 27.3496 3.84058 26.1165 1.15816 25.8311C0.511027 25.7622 0.042234 25.1818 0.111078 24.5347ZM17.0286 33.7671C17.5301 33.3524 18.2728 33.4227 18.6876 33.9242C25.0277 41.5903 30.1522 52.9136 30.1522 72.3815C30.1522 73.0323 29.6246 73.5598 28.9739 73.5598C28.3231 73.5598 27.7955 73.0323 27.7955 72.3815C27.7955 53.3798 22.8132 42.6105 16.8715 35.4261C16.4567 34.9246 16.5271 34.1818 17.0286 33.7671Z"
    fill="url(#paint0_linear_0_1615)" />
  <path fill-rule="evenodd" clip-rule="evenodd"
    d="M0.139648 31.4435C0.297486 30.8122 0.937248 30.4283 1.5686 30.5862C6.11195 31.722 13.0905 35.9174 17.9858 44.7067C18.3024 45.2752 18.0982 45.9928 17.5297 46.3095C16.9611 46.6261 16.2435 46.4219 15.9269 45.8534C11.3311 37.6018 4.87432 33.8418 0.997018 32.8725C0.365668 32.7146 -0.0181894 32.0749 0.139648 31.4435ZM18.741 48.896C19.347 48.6589 20.0305 48.958 20.2676 49.5641C22.333 54.8435 23.6713 60.2195 23.6713 68.2574C23.6713 68.9081 23.1437 69.4357 22.493 69.4357C21.8422 69.4357 21.3146 68.9081 21.3146 68.2574C21.3146 60.5385 20.0409 55.453 18.0729 50.4226C17.8358 49.8166 18.1349 49.1331 18.741 48.896Z"
    fill="url(#paint1_linear_0_1615)" />
  <path fill-rule="evenodd" clip-rule="evenodd"
    d="M0.132526 40.3111C0.2737 39.6759 0.903143 39.2753 1.53843 39.4165C4.58765 40.0941 8.05773 42.7088 10.741 46.8485C13.4485 51.0258 15.4229 56.8475 15.4229 64.1332C15.4229 64.784 14.8954 65.3116 14.2446 65.3116C13.5938 65.3116 13.0662 64.784 13.0662 64.1332C13.0662 57.279 11.211 51.9067 8.76333 48.1303C6.29131 44.3164 3.28051 42.2178 1.02719 41.717C0.391906 41.5758 -0.00864859 40.9464 0.132526 40.3111Z"
    fill="url(#paint2_linear_0_1615)" />
  <path fill-rule="evenodd" clip-rule="evenodd"
    d="M0.110314 49.8761C0.175069 49.2286 0.752507 48.7561 1.40006 48.8209C3.37727 49.0186 6.3303 50.691 7.65676 54.9451C7.85048 55.5663 7.50388 56.227 6.8826 56.4207C6.26132 56.6144 5.60063 56.2678 5.40691 55.6466C4.34137 52.2293 2.13562 51.2628 1.16556 51.1658C0.518008 51.1011 0.0455585 50.5236 0.110314 49.8761Z"
    fill="url(#paint3_linear_0_1615)" />
  <path fill-rule="evenodd" clip-rule="evenodd"
    d="M26.7612 3.04878C29.2421 1.62977 32.0544 0.883179 34.9165 0.883179C37.7786 0.883179 40.591 1.62977 43.0719 3.04878L69.729 18.328V58.2455L34.9136 78.182L0.104126 58.2454V18.328L26.7612 3.04878ZM27.9313 5.09444C27.9311 5.09454 27.9314 5.09434 27.9313 5.09444L2.46081 19.6935V56.8794L34.9137 75.4662L67.3723 56.8793V19.6935L41.9018 5.09444C41.9016 5.09434 41.902 5.09454 41.9018 5.09444C39.778 3.87979 37.3688 3.23983 34.9165 3.23983C32.4643 3.23983 30.0551 3.87979 27.9313 5.09444Z"
    fill="url(#paint4_linear_0_1615)" />
  <path
    d="M42.4868 4.07161L68.5506 19.0107V57.5624L34.9137 76.8241C34.9137 26.8794 7.81513 19.0108 1.28247 19.0108L27.3462 4.07161C29.6487 2.75469 32.2593 2.0615 34.9165 2.0615C37.5738 2.0615 40.1844 2.75469 42.4868 4.07161Z"
    fill="url(#paint5_linear_0_1615)" />
  <defs>
    <linearGradient id="paint0_linear_0_1615" x1="15.1282" y1="1.47253" x2="15.1282" y2="78.6528"
      gradientUnits="userSpaceOnUse">
      <stop stop-color="#5FC4F1" />
      <stop offset="0.0001" stop-color="#5FC4F1" />
      <stop offset="1" stop-color="#007AFF" />
    </linearGradient>
    <linearGradient id="paint1_linear_0_1615" x1="15.1282" y1="1.47253" x2="15.1282" y2="78.6528"
      gradientUnits="userSpaceOnUse">
      <stop stop-color="#5FC4F1" />
      <stop offset="0.0001" stop-color="#5FC4F1" />
      <stop offset="1" stop-color="#007AFF" />
    </linearGradient>
    <linearGradient id="paint2_linear_0_1615" x1="15.1282" y1="1.47253" x2="15.1282" y2="78.6528"
      gradientUnits="userSpaceOnUse">
      <stop stop-color="#5FC4F1" />
      <stop offset="0.0001" stop-color="#5FC4F1" />
      <stop offset="1" stop-color="#007AFF" />
    </linearGradient>
    <linearGradient id="paint3_linear_0_1615" x1="15.1282" y1="1.47253" x2="15.1282" y2="78.6528"
      gradientUnits="userSpaceOnUse">
      <stop stop-color="#5FC4F1" />
      <stop offset="0.0001" stop-color="#5FC4F1" />
      <stop offset="1" stop-color="#007AFF" />
    </linearGradient>
    <linearGradient id="paint4_linear_0_1615" x1="34.9165" y1="0.883179" x2="34.9165" y2="78.182"
      gradientUnits="userSpaceOnUse">
      <stop stop-color="#5FC4F1" />
      <stop offset="1" stop-color="#007AFF" />
    </linearGradient>
    <linearGradient id="paint5_linear_0_1615" x1="34.9165" y1="0.883179" x2="34.9165" y2="78.182"
      gradientUnits="userSpaceOnUse">
      <stop stop-color="#5FC4F1" />
      <stop offset="1" stop-color="#007AFF" />
    </linearGradient>
  </defs>
</svg>