<svg width="71" height="69" viewBox="0 0 71 69" fill="none" xmlns="http://www.w3.org/2000/svg">
  <path
    d="M70.3553 21.1366L66.3785 17.1599C65.9186 16.7 65.1611 16.7 64.7012 17.1599L60.0482 21.822C59.5883 22.2818 59.5883 23.0393 60.0482 23.4992L64.0249 27.476C64.4848 27.9359 65.2423 27.9359 65.7022 27.476L70.3553 22.8229C70.8152 22.354 70.8152 21.5965 70.3553 21.1366ZM59.0292 24.2296C58.6504 23.8509 57.911 23.9591 57.388 24.4821L35.1777 46.6924C34.6547 47.2155 34.5464 47.9549 34.9252 48.3336L33.3651 54.15L39.1815 52.5899C39.5602 52.9687 40.2997 52.8605 40.8227 52.3374L63.033 30.1271C63.556 29.6041 63.6642 28.8647 63.2855 28.4859L59.0292 24.2296Z"
    fill="url(#paint0_linear_0_1640)" />
  <path
    d="M8.02564 59.9398C7.89038 59.9128 7.75512 59.8677 7.63789 59.7956L8.02564 59.9398ZM8.02564 59.9398C8.53965 60.03 9.05365 59.7865 9.31516 59.3357L8.02564 59.9398ZM60.6366 39.8332V67.3974C60.6366 67.4979 60.5532 67.5801 60.4538 67.5801H1.39772C1.29715 67.5801 1.215 67.4968 1.215 67.3974V1.25344C1.215 1.24426 1.21661 1.23944 1.21778 1.23667C1.21928 1.23311 1.22177 1.22918 1.22547 1.22547C1.22918 1.22177 1.23311 1.21928 1.23667 1.21778C1.23944 1.21661 1.24426 1.215 1.25344 1.215H60.6366V13.5461L31.2074 42.9753L31.2036 42.9791C30.5303 43.6583 30.0819 44.5033 29.9372 45.3646C29.826 46.0268 29.8909 46.7565 30.2379 47.3938L28.5063 53.8545C28.2862 53.6437 28.0369 53.4961 27.7964 53.4005C27.3628 53.2053 26.9208 53.1524 26.5021 53.2112C26.2925 52.4906 25.8373 51.7856 24.9732 51.2988C24.2034 50.8617 23.4182 50.7266 22.6672 50.8467C21.9401 50.963 21.3325 51.3038 20.8576 51.6743C20.7946 51.7235 20.7329 51.774 20.6726 51.8256C20.7201 50.8234 20.5433 49.69 19.717 48.7016C18.8381 47.6469 17.5883 47.1156 16.2441 47.2319L16.2423 47.2321C15.0328 47.3386 13.8784 47.9457 12.7573 48.8758C11.6323 49.8091 10.4544 51.1397 9.18672 52.8499L9.18663 52.85C8.3241 54.014 7.57371 55.1549 7.03333 56.0138C6.76263 56.444 6.54348 56.8053 6.3881 57.0656C6.31037 57.1958 6.24865 57.3006 6.20451 57.376L6.15226 57.4655L6.13963 57.4871C6.13541 57.4944 6.13501 57.4951 6.13614 57.4932C6.13136 57.5011 6.12667 57.5092 6.12208 57.5172C5.46018 58.68 5.86274 60.1708 7.01974 60.8416C7.28869 61.0033 7.5633 61.0864 7.78738 61.1312C7.7968 61.1331 7.80624 61.1349 7.81569 61.1366C8.83851 61.316 9.85259 60.8307 10.3662 59.9452L10.3662 59.9453L10.3704 59.9379C11.467 58.0166 12.8453 56.0004 14.1273 54.4616C14.6261 53.8629 15.0965 53.3531 15.5179 52.9548C15.5075 53.0009 15.4987 53.0446 15.4931 53.0725C15.385 53.5681 15.1324 54.7336 15.2355 55.905C15.3404 57.098 15.8669 58.6436 17.6239 59.2259C17.8239 59.2925 18.0065 59.3316 18.127 59.3574L18.1413 59.3604C18.154 59.3631 18.1668 59.3657 18.1796 59.368C19.5383 59.6138 20.6326 59.0857 21.4156 58.446C21.5316 58.3512 21.643 58.2522 21.7499 58.1506C21.9167 58.5417 22.1482 58.906 22.4505 59.2282C23.2399 60.0731 24.4011 60.4531 25.5409 60.2079L25.5417 60.2077C26.2843 60.0473 26.8785 59.6815 27.3425 59.2622C27.4047 59.414 27.4956 59.5561 27.6146 59.68C27.9404 60.0194 28.4383 60.1742 28.9271 60.038L39.9326 57.0882C40.5711 57.4357 41.3026 57.5 41.9646 57.3891C42.8267 57.2446 43.6737 56.796 44.3509 56.1188L60.6366 39.8332ZM48.0276 19.8814C49.4055 19.8814 50.5411 18.7658 50.5411 17.3679V14.0133C50.5411 12.6354 49.4255 11.4998 48.0276 11.4998H13.833C12.455 11.4998 11.3194 12.6154 11.3194 14.0133V17.3679C11.3194 18.7458 12.435 19.8814 13.833 19.8814H48.0276ZM33.5995 33.5881C34.9774 33.5881 36.113 32.4725 36.113 31.0746V27.72C36.113 26.3421 34.9974 25.2065 33.5995 25.2065H13.833C12.455 25.2065 11.3194 26.3221 11.3194 27.72V31.0746C11.3194 32.4525 12.435 33.5881 13.833 33.5881H33.5995ZM22.659 55.9015L22.2373 55.6204L22.659 55.9015Z"
    stroke="url(#paint1_linear_0_1640)" stroke-width="2.43" stroke-linejoin="round" />
  <defs>
    <linearGradient id="paint0_linear_0_1640" x1="52.0327" y1="16.8149" x2="52.0327" y2="54.15"
      gradientUnits="userSpaceOnUse">
      <stop stop-color="#5FC4F1" />
      <stop offset="1" stop-color="#007AFF" />
    </linearGradient>
    <linearGradient id="paint1_linear_0_1640" x1="30.9258" y1="0" x2="30.9258" y2="68.7951"
      gradientUnits="userSpaceOnUse">
      <stop stop-color="#5FC4F1" />
      <stop offset="1" stop-color="#007AFF" />
    </linearGradient>
  </defs>
</svg>