<svg width="18" height="24" viewBox="0 0 18 24" fill="none" xmlns="http://www.w3.org/2000/svg"
  xmlns:xlink="http://www.w3.org/1999/xlink">
  <path
    d="M16.388 20.3396C16.388 21.2566 12.9052 22 8.60888 22C4.31259 22 0.829771 21.2566 0.829771 20.3396C0.829771 19.4226 4.31259 18.6792 8.60888 18.6792C12.9052 18.6792 16.388 19.4226 16.388 20.3396Z"
    fill="#F16552"></path>
  <path fill-rule="evenodd" clip-rule="evenodd"
    d="M0.246723 13.129C0.246723 15.8093 2.71797 17.0113 5.13421 17.0188C10.7877 17.0188 17.0427 13.5437 17.0102 7.72814C16.9867 3.53534 13.1342 -0.0340564 8.5753 0.000245195C4.23724 0.000245195 0.000286497 2.83266 0 6.69136C0 7.72762 0.594481 8.7301 2.14849 8.84297C0.852772 10.126 0.246723 11.6633 0.246723 13.129ZM8.59021 9.33962C9.49644 9.33962 10.2311 8.45686 10.2311 7.36792C10.2311 6.27898 9.49644 5.39623 8.59021 5.39623C7.68398 5.39623 6.94933 6.27898 6.94933 7.36792C6.94933 8.45686 7.68398 9.33962 8.59021 9.33962ZM13.295 9.33962C14.2012 9.33962 14.9359 8.45686 14.9359 7.36793C14.9359 6.27899 14.2012 5.39623 13.295 5.39623C12.3888 5.39623 11.6541 6.27899 11.6541 7.36793C11.6541 8.45686 12.3888 9.33962 13.295 9.33962Z"
    fill="#F16552"></path>
</svg>