<svg width="76" height="76" viewBox="0 0 76 76" fill="none" xmlns="http://www.w3.org/2000/svg">
<path d="M52.25 38H66.5C67.1299 38 67.734 38.2502 68.1794 38.6956C68.6248 39.141 68.875 39.7451 68.875 40.375V59.375C68.875 60.0049 68.6248 60.609 68.1794 61.0544C67.734 61.4998 67.1299 61.75 66.5 61.75H9.5C8.87011 61.75 8.26602 61.4998 7.82062 61.0544C7.37522 60.609 7.125 60.0049 7.125 59.375V40.375C7.125 39.7451 7.37522 39.141 7.82062 38.6956C8.26602 38.2502 8.87011 38 9.5 38H23.75" stroke="black" stroke-width="4.75" stroke-linecap="round" stroke-linejoin="round"/>
<path d="M38 38V7.125" stroke="black" stroke-width="4.75" stroke-linecap="round" stroke-linejoin="round"/>
<path d="M23.75 21.375L38 7.125L52.25 21.375" stroke="black" stroke-width="4.75" stroke-linecap="round" stroke-linejoin="round"/>
<path d="M55.8125 53.4375C57.78 53.4375 59.375 51.8425 59.375 49.875C59.375 47.9075 57.78 46.3125 55.8125 46.3125C53.845 46.3125 52.25 47.9075 52.25 49.875C52.25 51.8425 53.845 53.4375 55.8125 53.4375Z" fill="black"/>
</svg>
