<svg viewBox="0 0 40 40" focusable="false" class="chakra-icon css-1pckyyl" aria-hidden="true" xmlns="http://www.w3.org/2000/svg"><path d="M20 40C31.0457 40 40 31.0457 40 20C40 8.9543 31.0457 0 20 0C8.9543 0 0 8.9543 0 20C0 31.0457 8.9543 40 20 40Z" fill="#1F2937"></path><path d="M23.0354 19.3457L25.0142 15.9881L30.3477 24.2953L30.3502 25.8895L30.3328 14.9191C30.3202 14.651 30.1778 14.4056 29.9506 14.261L20.3482 8.73753C20.1236 8.62716 19.8387 8.62833 19.6146 8.74096C19.5843 8.75618 19.5558 8.77265 19.5286 8.79063L19.4952 8.8117L10.1745 14.213L10.1383 14.2294C10.0918 14.2508 10.0448 14.2779 10.0007 14.3095C9.82397 14.4363 9.70658 14.6237 9.66861 14.8339C9.66293 14.8658 9.65875 14.8982 9.65674 14.9309L9.67137 23.8707L14.6393 16.1706C15.2648 15.1496 16.6276 14.8207 17.8926 14.8386L19.3774 14.8778L10.629 28.9077L11.6603 29.5015L20.5135 14.892L24.4267 14.8778L15.5962 29.8559L19.2761 31.9725L19.7157 32.2253C19.9017 32.3009 20.121 32.3047 20.3085 32.237L30.0458 26.5941L28.1842 27.6729L23.0354 19.3457ZM23.7903 30.2192L20.0736 24.3859L22.3424 20.5359L27.2236 28.2295L23.7903 30.2192Z" fill="#2D374B"></path><path d="M20.0737 24.3859L23.7904 30.2192L27.2238 28.2295L22.3426 20.5359L20.0737 24.3859Z" fill="#28A0F0"></path><path d="M30.3505 25.8895L30.348 24.2953L25.0144 15.9881L23.0356 19.3457L28.1845 27.6729L30.0461 26.5941C30.2287 26.4459 30.3392 26.2282 30.3508 25.9933L30.3505 25.8895Z" fill="#28A0F0"></path><path d="M8.00008 27.3929L10.629 28.9077L19.3774 14.8778L17.8926 14.8386C16.6276 14.8207 15.2648 15.1496 14.6393 16.1706L9.67134 23.8707L8 26.4387V27.3929H8.00008Z" fill="white"></path><path d="M24.4267 14.8778L20.5136 14.892L11.6604 29.5015L14.7548 31.2832L15.5964 29.8559L24.4267 14.8778Z" fill="white"></path><path d="M32.0002 14.8577C31.9675 14.0393 31.5244 13.2901 30.8303 12.8539L21.1021 7.25951C20.4155 6.91375 19.5577 6.91333 18.8701 7.25926C18.7888 7.30023 9.40951 12.7399 9.40951 12.7399C9.27974 12.8021 9.15473 12.8763 9.03708 12.9604C8.41747 13.4045 8.03978 14.0945 8.00098 14.8526V26.4387L9.67232 23.8708L9.65769 14.931C9.65969 14.8983 9.66379 14.8662 9.66956 14.8344C9.70727 14.624 9.82476 14.4364 10.0016 14.3096C10.0458 14.278 19.5852 8.75626 19.6155 8.74104C19.8398 8.62841 20.1247 8.62724 20.3492 8.73761L29.9515 14.261C30.1787 14.4057 30.3211 14.651 30.3338 14.9192V25.9934C30.3221 26.2283 30.2293 26.4459 30.0467 26.5942L28.185 27.6729L27.2245 28.2296L23.7912 30.2193L20.3094 32.2371C20.1218 32.3048 19.9026 32.3011 19.7166 32.2254L15.5971 29.856L14.7556 31.2832L18.4577 33.4147C18.5801 33.4843 18.6892 33.546 18.7787 33.5963C18.9173 33.6741 19.0117 33.726 19.0451 33.7421C19.3082 33.8699 19.6868 33.9443 20.0279 33.9443C20.3407 33.9443 20.6457 33.8869 20.9343 33.7738L31.0474 27.917C31.6279 27.4673 31.9694 26.7891 32.0002 26.0544V14.8577V14.8577Z" fill="#96BEDC"></path></svg>