<svg viewBox="0 0 40 40" focusable="false" class="chakra-icon css-1pckyyl" aria-hidden="true" xmlns="http://www.w3.org/2000/svg"><path d="M20.0007 6.44444C20.6613 6.44233 21.3093 6.62522 21.8713 6.97241C22.4333 7.31959 22.8869 7.8172 23.1807 8.40889L33.1807 28.4089C33.452 28.951 33.5801 29.5535 33.553 30.159C33.5259 30.7646 33.3444 31.3532 33.0258 31.8689C32.7071 32.3846 32.2619 32.8103 31.7325 33.1055C31.203 33.4007 30.6069 33.5556 30.0007 33.5556H10.0007C9.3945 33.5556 8.79836 33.4007 8.2689 33.1055C7.73944 32.8103 7.29425 32.3846 6.97561 31.8689C6.65698 31.3532 6.47548 30.7646 6.44837 30.159C6.42125 29.5535 6.54942 28.951 6.82069 28.4089L16.8207 8.40889C17.1145 7.8172 17.5681 7.31959 18.1301 6.97241C18.6921 6.62522 19.3401 6.44233 20.0007 6.44444ZM20.0007 4C18.8865 3.99987 17.7943 4.30998 16.8465 4.89557C15.8986 5.48117 15.1325 6.31912 14.634 7.31556L4.63402 27.3156C4.17636 28.2304 3.96019 29.247 4.00603 30.2689C4.05187 31.2908 4.35821 32.284 4.89594 33.1541C5.43366 34.0243 6.18493 34.7425 7.07838 35.2406C7.97182 35.7387 8.97778 36.0001 10.0007 36H30.0007C31.0236 36.0001 32.0295 35.7387 32.923 35.2406C33.8164 34.7425 34.5677 34.0243 35.1054 33.1541C35.6432 32.284 35.9495 31.2908 35.9953 30.2689C36.0412 29.247 35.825 28.2304 35.3673 27.3156L25.3674 7.31556C24.8689 6.31912 24.1028 5.48117 23.1549 4.89557C22.207 4.30998 21.1149 3.99987 20.0007 4Z" fill="#70D44B"></path></svg>