<svg viewBox="0 0 40 40" focusable="false" class="chakra-icon css-1pckyyl" aria-hidden="true" xmlns="http://www.w3.org/2000/svg"><path d="M13.7091 27.7188C12.9709 27.7188 12.3476 27.1916 12.2234 26.4628L8.0219 1.7599C7.95394 1.36154 8.04533 0.963185 8.27966 0.635125C8.51399 0.307065 8.86079 0.0891383 9.25681 0.021183C10.077 -0.117071 10.8573 0.435945 10.9979 1.2561L15.1994 25.959C15.2673 26.3574 15.176 26.7557 14.9416 27.0838C14.7073 27.4119 14.3605 27.6298 13.9645 27.6977C13.8825 27.7118 13.7958 27.7188 13.7091 27.7188Z" fill="#CCFF00"></path><path d="M13.7091 27.7188C12.9709 27.7188 12.3476 27.1916 12.2234 26.4628L8.0219 1.7599C7.95394 1.36154 8.04533 0.963185 8.27966 0.635125C8.51399 0.307065 8.86079 0.0891383 9.25681 0.021183C10.077 -0.117071 10.8573 0.435945 10.9979 1.2561L15.1994 25.959C15.2673 26.3574 15.176 26.7557 14.9416 27.0838C14.7073 27.4119 14.3605 27.6298 13.9645 27.6977C13.8825 27.7118 13.7958 27.7188 13.7091 27.7188Z" fill="#CCFF00"></path><path d="M20.7505 16.3258C18.3486 16.3258 16.1155 17.0452 14.2479 18.2801L14.7564 21.2701C16.3615 19.8712 18.4588 19.0206 20.7505 19.0206C25.7909 19.0206 29.8917 23.1213 29.8917 28.1617C29.8917 33.2021 25.7909 37.3029 20.7505 37.3029C15.7101 37.3029 11.6093 33.2021 11.6093 28.1617C11.6093 27.4892 11.6843 26.8354 11.8226 26.2051L11.0118 21.4459C9.69018 23.3556 8.91455 25.6708 8.91455 28.1641C8.91455 34.6901 14.2244 40 20.7505 40C27.2765 40 32.5864 34.6901 32.5864 28.1641C32.5864 21.638 27.2789 16.3258 20.7505 16.3258Z" fill="#CCFF00"></path><path d="M20.1039 35.0697C20.9943 35.0697 21.7161 34.3479 21.7161 33.4575C21.7161 32.5671 20.9943 31.8453 20.1039 31.8453C19.2135 31.8453 18.4917 32.5671 18.4917 33.4575C18.4917 34.3479 19.2135 35.0697 20.1039 35.0697Z" fill="#1CD8D2"></path><path d="M25.1395 33.1928C26.0299 33.1928 26.7517 32.471 26.7517 31.5806C26.7517 30.6902 26.0299 29.9684 25.1395 29.9684C24.2491 29.9684 23.5273 30.6902 23.5273 31.5806C23.5273 32.471 24.2491 33.1928 25.1395 33.1928Z" fill="#1CD8D2"></path><path d="M21.182 29.7364C22.0724 29.7364 22.7942 29.0146 22.7942 28.1242C22.7942 27.2338 22.0724 26.512 21.182 26.512C20.2916 26.512 19.5698 27.2338 19.5698 28.1242C19.5698 29.0146 20.2916 29.7364 21.182 29.7364Z" fill="#1CD8D2"></path><path d="M16.1766 31.3837C17.067 31.3837 17.7888 30.6619 17.7888 29.7715C17.7888 28.8812 17.067 28.1594 16.1766 28.1594C15.2863 28.1594 14.5645 28.8812 14.5645 29.7715C14.5645 30.6619 15.2863 31.3837 16.1766 31.3837Z" fill="#1CD8D2"></path><path d="M26.1708 28.0844C27.0612 28.0844 27.783 27.3626 27.783 26.4722C27.783 25.5818 27.0612 24.86 26.1708 24.86C25.2804 24.86 24.5586 25.5818 24.5586 26.4722C24.5586 27.3626 25.2804 28.0844 26.1708 28.0844Z" fill="#1CD8D2"></path><path d="M22.2577 24.4031C23.1481 24.4031 23.8699 23.6813 23.8699 22.7909C23.8699 21.9005 23.1481 21.1787 22.2577 21.1787C21.3673 21.1787 20.6455 21.9005 20.6455 22.7909C20.6455 23.6813 21.3673 24.4031 22.2577 24.4031Z" fill="#1CD8D2"></path><path d="M17.2054 26.2777C18.0958 26.2777 18.8176 25.5559 18.8176 24.6655C18.8176 23.7751 18.0958 23.0533 17.2054 23.0533C16.3151 23.0533 15.5933 23.7751 15.5933 24.6655C15.5933 25.5559 16.3151 26.2777 17.2054 26.2777Z" fill="#1CD8D2"></path></svg>