<svg viewBox="0 0 40 40" focusable="false" class="chakra-icon css-1pckyyl" aria-hidden="true" xmlns="http://www.w3.org/2000/svg"><path d="M40 20C40 8.95431 31.0457 0 20 0C8.95431 0 0 8.95431 0 20C0 31.0457 8.95431 40 20 40C31.0457 40 40 31.0457 40 20Z" fill="#2F3337"></path><path d="M23.3415 25.6455C28.2411 25.6455 32.213 21.5455 32.213 16.4878C32.213 11.4301 28.2411 7.33008 23.3415 7.33008C18.4418 7.33008 14.4699 11.4301 14.4699 16.4878C14.4699 21.5455 18.4418 25.6455 23.3415 25.6455ZM23.3415 28.9756C16.6604 28.9756 11.2439 23.3844 11.2439 16.4878C11.2439 9.5912 16.6604 4 23.3415 4C30.0225 4 35.439 9.5912 35.439 16.4878C35.439 23.3844 30.0225 28.9756 23.3415 28.9756Z" fill="#35D07F"></path><path d="M16.7073 32.6699C21.4489 32.6699 25.2927 28.5699 25.2927 23.5122C25.2927 18.4545 21.4489 14.3545 16.7073 14.3545C11.9657 14.3545 8.12195 18.4545 8.12195 23.5122C8.12195 28.5699 11.9657 32.6699 16.7073 32.6699ZM16.7073 36C10.2418 36 5 30.4088 5 23.5122C5 16.6156 10.2418 11.0244 16.7073 11.0244C23.1729 11.0244 28.4146 16.6156 28.4146 23.5122C28.4146 30.4088 23.1729 36 16.7073 36Z" fill="#FBCC5C"></path><path d="M23.3374 28.9756C24.1493 27.9471 24.7313 26.7418 25.0407 25.448C26.278 25.1247 27.4308 24.5164 28.4146 23.6677C28.3698 25.1657 28.0611 26.6422 27.5043 28.0232C26.1832 28.6057 24.7708 28.9285 23.3377 28.9756H23.3374ZM14.6179 14.5513C13.3805 14.8747 12.2277 15.483 11.2439 16.3317C11.2888 14.8337 11.5974 13.3572 12.1543 11.9762C13.4753 11.3939 14.8878 11.0712 16.3208 11.0244C15.5091 12.0528 14.9273 13.2577 14.6179 14.5513Z" fill="#ECFF8F"></path></svg>