<svg viewBox="0 0 40 40" focusable="false" class="chakra-icon css-1pckyyl" aria-hidden="true" xmlns="http://www.w3.org/2000/svg"><path fill="#002D74" d="M20.325 0L3 10.003v20L20.325 40l17.311-9.997v-20L20.325 0zm12.182 27.04l-12.182 7.033-12.19-7.033V12.96l12.19-7.033 12.182 7.033v14.08z"></path><path fill="url(#paint0_linear_14_247)" d="M20.325 40l17.311-9.997v-20L20.325 0v5.934l12.182 7.033v14.08l-12.182 7.026V40z" style="mix-blend-mode: multiply;"></path><path fill="url(#paint1_linear_14_247)" d="M20.311 0L3 9.997v20L20.311 40v-5.934L8.13 27.033v-14.08l12.182-7.026V0z" style="mix-blend-mode: multiply;"></path><path fill="#002D74" d="M28.404 24.673l-8.086 4.667-8.092-4.667v-9.34l8.092-4.673 8.086 4.674-3.366 1.944-4.72-2.729-4.72 2.729v5.444l4.72 2.729 4.72-2.729 3.366 1.951z"></path><defs><linearGradient id="paint0_linear_14_247" x1="28.981" x2="28.981" y1="40" y2="20" gradientUnits="userSpaceOnUse"><stop stop-color="#002D74"></stop><stop offset="1" stop-color="#002D74" stop-opacity="0"></stop></linearGradient><linearGradient id="paint1_linear_14_247" x1="11.656" x2="11.656" y1="0" y2="20" gradientUnits="userSpaceOnUse"><stop stop-color="#002D74"></stop><stop offset="1" stop-color="#002D74" stop-opacity="0"></stop></linearGradient></defs></svg>