<svg width="34" height="26" viewBox="0 0 34 26" fill="none" xmlns="http://www.w3.org/2000/svg">
<path d="M5.49475 2.22219C5.50395 2.20425 5.51918 2.1902 5.53773 2.18254C7.68216 1.19182 9.94515 0.485357 12.2701 0.0808344C12.2912 0.0768803 12.313 0.0797328 12.3324 0.0889864C12.3519 0.09824 12.3679 0.113423 12.3782 0.132377C12.6864 0.695549 12.9661 1.27402 13.2164 1.86558C15.7225 1.48251 18.2717 1.48251 20.7778 1.86558C21.0297 1.27252 21.3139 0.693902 21.6292 0.132377C21.64 0.113835 21.6561 0.0990015 21.6754 0.0898081C21.6947 0.0806146 21.7163 0.0774876 21.7374 0.0808344C24.0625 0.484508 26.3257 1.19102 28.4698 2.1826C28.4882 2.19043 28.5037 2.20381 28.5142 2.22089C32.802 8.66874 33.9767 14.9581 33.4004 21.1695C33.3988 21.1847 33.3942 21.1995 33.3868 21.2128C33.3794 21.2262 33.3694 21.238 33.3574 21.2474C30.8606 23.1089 28.0679 24.5298 25.0985 25.4495C25.0776 25.4558 25.0553 25.4555 25.0345 25.4487C25.0138 25.4418 24.9956 25.4288 24.9825 25.4112C24.3447 24.5374 23.7796 23.6121 23.2929 22.6448C23.2862 22.6315 23.2824 22.6169 23.2817 22.6021C23.281 22.5872 23.2834 22.5723 23.2888 22.5585C23.2942 22.5446 23.3025 22.5321 23.3131 22.5217C23.3237 22.5113 23.3363 22.5033 23.3502 22.4982C24.2413 22.1548 25.104 21.741 25.9303 21.2604C25.9453 21.2515 25.9579 21.239 25.967 21.2241C25.9761 21.2091 25.9813 21.1922 25.9824 21.1747C25.9834 21.1572 25.9801 21.1397 25.9729 21.1238C25.9656 21.1078 25.9545 21.094 25.9407 21.0833C25.7668 20.9526 25.596 20.8178 25.4283 20.6791C25.4136 20.6669 25.3958 20.6591 25.3769 20.6565C25.358 20.654 25.3388 20.6568 25.3214 20.6646C19.9085 23.1521 14.0484 23.1521 8.69954 20.6646C8.68211 20.6563 8.66269 20.6531 8.64353 20.6554C8.62437 20.6577 8.60626 20.6655 8.59132 20.6778C8.42344 20.8172 8.25216 20.9524 8.07764 21.0833C8.0637 21.0938 8.05255 21.1076 8.04516 21.1235C8.03777 21.1394 8.03438 21.1568 8.03528 21.1743C8.03618 21.1918 8.04135 21.2088 8.05032 21.2238C8.0593 21.2389 8.07181 21.2514 8.08675 21.2604C8.91109 21.745 9.7746 22.1586 10.6681 22.4969C10.6819 22.5022 10.6945 22.5104 10.7051 22.521C10.7156 22.5315 10.7237 22.5442 10.729 22.5581C10.7344 22.5721 10.7367 22.587 10.7359 22.602C10.735 22.6169 10.7311 22.6315 10.7243 22.6448C10.2295 23.6067 9.66518 24.5308 9.03603 25.4097C9.02326 25.4277 9.00518 25.4412 8.98436 25.4483C8.96353 25.4555 8.94101 25.4558 8.91998 25.4493C5.94524 24.5328 3.14767 23.1117 0.647747 21.2474C0.635574 21.2384 0.625439 21.227 0.618019 21.2138C0.610596 21.2006 0.60606 21.1859 0.604713 21.1708C-0.0851364 13.9897 1.75964 7.75196 5.49475 2.22219ZM22.4845 17.3874C24.1142 17.3874 25.457 15.8815 25.457 14.032C25.457 12.1826 24.1402 10.6766 22.4845 10.6766C20.8158 10.6766 19.486 12.1957 19.5121 14.0319C19.5121 15.8815 20.8289 17.3874 22.4845 17.3874ZM11.4944 17.3874C13.124 17.3874 14.4668 15.8815 14.4668 14.032C14.4668 12.1826 13.15 10.6766 11.4944 10.6766C9.82561 10.6766 8.49586 12.1957 8.5219 14.0319C8.5219 15.8815 9.82561 17.3874 11.4944 17.3874Z" fill="white"/>
</svg>
