<svg viewBox="0 0 40 40" focusable="false" class="chakra-icon css-1pckyyl" aria-hidden="true" xmlns="http://www.w3.org/2000/svg"><path d="M0 20C0 8.95431 8.95431 0 20 0C31.0457 0 40 8.95431 40 20C40 31.0457 31.0457 40 20 40C8.95431 40 0 31.0457 0 20Z" fill="white"></path><path d="M16.4476 10.6617C10.9171 12.7847 10.4105 18.2216 8.82473 20.7608C7.22016 23.3302 3.54413 24.7478 4.04681 26.0572C4.5495 27.3665 8.22989 25.9602 11.1416 26.7957C14.0189 27.6211 18.0334 31.3229 23.5638 29.1999C26.3812 28.1186 28.4212 25.8925 29.3593 23.2559C29.4602 22.9729 29.2715 22.6703 28.9723 22.6423C28.7863 22.6248 28.6077 22.7222 28.5238 22.8891C27.6752 24.5792 26.2196 25.9711 24.3145 26.7022C21.1696 27.9094 17.7285 26.9616 15.6151 24.5845C15.1352 24.0447 14.7246 23.4302 14.4006 22.7511C14.3115 22.5641 14.2267 22.3742 14.1516 22.1776C14.0761 21.9811 14.0119 21.7832 13.9529 21.5845C15.6151 20.8098 17.5333 19.9891 19.7078 19.1545C21.84 18.3361 23.7804 17.6722 25.5081 17.1412C26.6768 16.7822 27.7482 16.4834 28.7155 16.2393C28.7854 16.2218 28.8544 16.2044 28.923 16.1873C29.0693 16.1511 29.2195 16.2292 29.2737 16.3699L29.2746 16.3725C29.3064 16.4559 29.334 16.5398 29.3637 16.6236C29.555 17.1647 29.6982 17.7115 29.793 18.2596C29.8345 18.4994 30.0965 18.63 30.3114 18.5147C31.1054 18.0884 31.8317 17.6727 32.4807 17.2726C34.8989 15.7833 36.2397 14.5203 35.9645 13.8045C35.6894 13.0887 33.8485 13.0472 31.0547 13.5582C30.1668 13.7206 29.1824 13.939 28.1216 14.2093C27.9381 14.2561 27.7525 14.3045 27.5647 14.3543C26.672 14.591 25.7304 14.8623 24.75 15.1658C22.9266 15.7305 20.9704 16.407 18.9509 17.1822C17.0616 17.9076 15.271 18.6597 13.6289 19.4091C13.6088 16.2284 15.5317 13.2214 18.6767 12.0143C20.5813 11.2832 22.5947 11.343 24.3565 12.0318C24.5303 12.0999 24.7281 12.0527 24.8552 11.9151C25.0587 11.6942 24.9963 11.3435 24.7321 11.2002C22.2706 9.86947 19.265 9.58034 16.4476 10.6617Z" fill="black"></path></svg>