<svg viewBox="0 0 40 40" focusable="false" class="chakra-icon css-1pckyyl" aria-hidden="true" xmlns="http://www.w3.org/2000/svg"><path d="M40 20C40 8.95431 31.0457 0 20 0C8.95431 0 0 8.95431 0 20C0 31.0457 8.95431 40 20 40C31.0457 40 40 31.0457 40 20Z" fill="#071927"></path><path fill-rule="evenodd" clip-rule="evenodd" d="M19.9246 27.1198C19.1359 27.1198 18.4031 26.9634 17.805 26.6673L11.3641 23.479L9.43405 24.5771C8.51666 25.0989 8.53268 25.8987 9.46979 26.3626L18.3782 30.7723C18.8108 30.9865 19.364 31.0917 19.9246 31.0917C20.5791 31.0917 21.2432 30.9485 21.7375 30.6673L30.4585 25.7057C31.3759 25.1837 31.3598 24.3837 30.4227 23.9202L28.5707 23.003L22.3745 26.5284C21.7039 26.9097 20.8338 27.1198 19.9246 27.1198Z" fill="url(#paint0_linear_6654_53432)"></path><path fill-rule="evenodd" clip-rule="evenodd" d="M30.4801 18.6405L28.9337 17.8637L25.3325 19.9425L24.7142 20.2993L24.0963 20.6561L22.4105 21.6293C21.7382 22.0177 20.8656 22.2313 19.9542 22.2313C19.1635 22.2313 18.4288 22.072 17.829 21.7712L15.8976 20.8008L15.2583 20.48L14.6191 20.159L11.0603 18.3712L9.43599 19.3089C8.51617 19.84 8.53193 20.6533 9.47154 21.1254L11.3288 22.0581L11.9681 22.3791L12.607 22.7003L18.4037 25.6118C18.8372 25.8293 19.3922 25.9363 19.9542 25.9363C20.6101 25.9363 21.2764 25.7907 21.7715 25.5047L27.3446 22.2876L27.9629 21.9308L28.5808 21.5741L30.516 20.4569C31.4358 19.9262 31.4196 19.1125 30.4801 18.6405Z" fill="url(#paint1_linear_6654_53432)"></path><path fill-rule="evenodd" clip-rule="evenodd" d="M30.4801 13.8814L21.5478 9.47348C21.1144 9.25929 20.5597 9.15424 19.9973 9.15424C19.3415 9.15424 18.6753 9.2976 18.18 9.57855L9.43599 14.5385C8.51617 15.0601 8.53193 15.8593 9.47154 16.3231L11.018 17.0864L11.6572 17.4019L12.2965 17.7174L15.8553 19.4738L16.4946 19.789L17.1338 20.1047L18.4037 20.7318C18.8372 20.9455 19.3922 21.0506 19.9542 21.0506C20.6101 21.0506 21.2764 20.9073 21.7715 20.6263L22.8178 20.0329L23.436 19.6822L24.0541 19.3316L27.6551 17.289L28.2734 16.9384L28.8913 16.5878L30.516 15.6663C31.4358 15.1448 31.4196 14.3452 30.4801 13.8814Z" fill="url(#paint2_linear_6654_53432)"></path><defs><linearGradient id="paint0_linear_6654_53432" x1="19.9463" y1="9.85949" x2="19.9463" y2="31.0917" gradientUnits="userSpaceOnUse"><stop stop-color="#B3F9BA"></stop><stop offset="1" stop-color="#F6FB8C"></stop></linearGradient><linearGradient id="paint1_linear_6654_53432" x1="19.9759" y1="9.87583" x2="19.9759" y2="30.6032" gradientUnits="userSpaceOnUse"><stop stop-color="#B1FFBF"></stop><stop offset="1" stop-color="#FFF16D"></stop></linearGradient><linearGradient id="paint2_linear_6654_53432" x1="19.9759" y1="9.15424" x2="19.9759" y2="30.6633" gradientUnits="userSpaceOnUse"><stop stop-color="#B3F9BA"></stop><stop offset="1" stop-color="#F6FB8C"></stop></linearGradient></defs></svg>