<svg width="30" height="30" viewBox="0 0 30 30" fill="none" xmlns="http://www.w3.org/2000/svg">
<path d="M15 0.136719C11.4383 0.136866 7.99274 1.40439 5.27999 3.71249C2.56724 6.02059 0.764293 9.21865 0.193741 12.7344C-0.376811 16.2502 0.322268 19.8543 2.16589 22.9018C4.00951 25.9494 6.87737 28.2414 10.2563 29.368C11.0063 29.4992 11.2876 29.0492 11.2876 28.6555C11.2876 28.2992 11.2688 27.118 11.2688 25.8617C7.50004 26.5555 6.52504 24.943 6.22504 24.0993C5.89216 23.2787 5.36445 22.5514 4.68754 21.9805C4.16254 21.6992 3.41254 21.0055 4.66878 20.9867C5.14846 21.0388 5.60852 21.2057 6.00999 21.4733C6.41145 21.741 6.74249 22.1014 6.97504 22.5242C7.1802 22.8928 7.45606 23.2172 7.78683 23.479C8.11759 23.7407 8.49675 23.9346 8.90259 24.0496C9.30843 24.1645 9.73296 24.1983 10.1519 24.1489C10.5708 24.0995 10.9758 23.9679 11.3438 23.7617C11.4087 22.9991 11.7486 22.2862 12.3 21.7555C8.96254 21.3805 5.47504 20.0867 5.47504 14.3493C5.45396 12.8585 6.00407 11.4161 7.01254 10.318C6.55396 9.02234 6.60762 7.60044 7.16254 6.34301C7.16254 6.34301 8.41875 5.94925 11.2875 7.88051C13.742 7.20547 16.3331 7.20547 18.7875 7.88051C21.6563 5.93051 22.9125 6.34301 22.9125 6.34301C23.4675 7.60042 23.5212 9.02235 23.0625 10.318C24.0741 11.4143 24.6246 12.8579 24.6 14.3493C24.6 20.1055 21.0938 21.3805 17.7563 21.7555C18.1143 22.1183 18.39 22.554 18.5647 23.0328C18.7394 23.5116 18.809 24.0224 18.7688 24.5305C18.7688 26.5368 18.75 28.1492 18.75 28.6555C18.75 29.0493 19.0313 29.518 19.7813 29.368C23.1543 28.2323 26.0139 25.9349 27.8497 22.8858C29.6854 19.8367 30.3779 16.2345 29.8034 12.7221C29.2289 9.20969 27.4248 6.01578 24.7132 3.71048C22.0017 1.40519 18.5591 0.138571 15 0.136719Z" fill="white"/>
</svg>
