<svg viewBox="0 0 40 40" focusable="false" class="chakra-icon css-1pckyyl" aria-hidden="true" xmlns="http://www.w3.org/2000/svg"><path d="M29.0973 4C27.2696 3.99858 25.5159 4.72442 24.2214 6.01819C22.9268 7.31196 22.197 9.06795 22.1923 10.9007V18.5519C21.4812 18.6 20.7541 18.6303 20.0003 18.6303C19.2465 18.6303 18.5229 18.6606 17.8082 18.7034V10.9007C17.7792 9.08384 17.039 7.35127 15.7474 6.07675C14.4558 4.80223 12.7163 4.08792 10.9041 4.08792C9.09199 4.08792 7.35248 4.80223 6.06087 6.07675C4.76926 7.35127 4.02908 9.08384 4 10.9007V29.1872C4.02908 31.0041 4.76926 32.7366 6.06087 34.0112C7.35248 35.2857 9.09199 36 10.9041 36C12.7163 36 14.4558 35.2857 15.7474 34.0112C17.039 32.7366 17.7792 31.0041 17.8082 29.1872V21.536C18.5194 21.4879 19.2465 21.4576 20.0003 21.4576C20.7541 21.4576 21.4776 21.4273 22.1923 21.3845V29.1872C22.2214 31.0041 22.9616 32.7366 24.2532 34.0112C25.5448 35.2857 27.2843 36 29.0964 36C30.9086 36 32.6481 35.2857 33.9397 34.0112C35.2313 32.7366 35.9715 31.0041 36.0006 29.1872V10.9007C35.9959 9.06826 35.2664 7.31254 33.9722 6.01882C32.678 4.7251 30.9248 3.99905 29.0973 4V4ZM10.9032 6.8273C11.9819 6.82683 13.0167 7.25544 13.7806 8.01909C14.5445 8.78274 14.9751 9.81907 14.978 10.9007V19.0029C12.958 19.2964 10.9854 19.8556 9.1112 20.6661C8.29916 21.0235 7.53473 21.481 6.83561 22.0281V10.9007C6.83843 9.8203 7.26806 8.78505 8.03043 8.02161C8.7928 7.25816 9.82579 6.82872 10.9032 6.8273V6.8273ZM14.978 29.1872C14.978 30.2709 14.5487 31.3101 13.7845 32.0764C13.0203 32.8426 11.9839 33.2731 10.9032 33.2731C9.82255 33.2731 8.78612 32.8426 8.02196 32.0764C7.2578 31.3101 6.8285 30.2709 6.8285 29.1872V27.3529C6.8285 25.7324 8.10852 24.1976 10.2543 23.2421C11.7663 22.588 13.3528 22.1228 14.978 21.8569V29.1872V29.1872ZM29.0973 33.2606C28.0187 33.2611 26.9838 32.8325 26.2199 32.0688C25.456 31.3052 25.0254 30.2689 25.0226 29.1872V21.085C27.0426 20.7915 29.0152 20.2323 30.8894 19.4218C31.7014 19.0644 32.4658 18.6069 33.165 18.0599V29.1872C33.1621 30.2676 32.7325 31.3029 31.9701 32.0663C31.2078 32.8298 30.1748 33.2592 29.0973 33.2606V33.2606ZM29.7462 16.8352C28.2343 17.4893 26.6478 17.9545 25.0226 18.2203V10.9007C25.0226 9.81705 25.4519 8.77779 26.2161 8.01155C26.9802 7.2453 28.0166 6.81483 29.0973 6.81483C30.178 6.81483 31.2145 7.2453 31.9786 8.01155C32.7428 8.77779 33.1721 9.81705 33.1721 10.9007V12.735C33.1721 14.3484 31.8921 15.8832 29.7462 16.8352Z" fill="#00AEE9"></path></svg>