<svg viewBox="0 0 40 40" focusable="false" class="chakra-icon css-1pckyyl" aria-hidden="true" xmlns="http://www.w3.org/2000/svg"><path d="M0 20C0 8.95431 8.95431 0 20 0C31.0457 0 40 8.95431 40 20C40 31.0457 31.0457 40 20 40C8.95431 40 0 31.0457 0 20Z" fill="#3E8445"></path><path d="M15.5225 10.0747V12.9666C13.1916 13.84 11.2457 15.5032 10.0082 17.6295V9H14.45C15.0418 9 15.5225 9.4807 15.5225 10.0747Z" fill="white"></path><path d="M23.1857 16.5064C23.1857 18.0343 21.9471 19.2729 20.4192 19.2729H19.5172C17.3172 19.2729 15.5319 21.0538 15.5275 23.256V31H11.0802C10.4862 31 10.0066 30.5193 10.0066 29.9264V23.3671C10.0022 23.2527 10 23.1383 10 23.0228C10 17.8902 14.1613 13.7278 19.295 13.7278C19.4105 13.7278 19.5249 13.73 19.6404 13.7344H23.1857V16.5064Z" fill="white"></path><path d="M24.6188 29.9253V27.0334C26.9508 26.1589 28.8967 24.4957 30.1331 22.3694V31H25.6913C25.1006 31 24.6188 30.5193 24.6188 29.9253Z" fill="white"></path><path d="M16.9553 23.4936C16.9553 21.9657 18.1939 20.7271 19.7218 20.7271H20.6238C22.8238 20.7271 24.6091 18.9462 24.6135 16.744V9H29.0608C29.6548 9 30.1344 9.4807 30.1344 10.0736V16.6329C30.1399 16.7473 30.141 16.8617 30.141 16.9783C30.141 22.1109 25.9797 26.2733 20.846 26.2733C20.7305 26.2733 20.6161 26.2711 20.5006 26.2667H16.9553V23.4936Z" fill="white"></path></svg>