<svg viewBox="0 0 40 40" focusable="false" class="chakra-icon css-1pckyyl" aria-hidden="true" xmlns="http://www.w3.org/2000/svg"><path fill-rule="evenodd" clip-rule="evenodd" d="M34.4745 13.6889L37.2777 12.2556C33.8776 4.40607 24.262 -1.14568 14.2009 2.24735C4.668 5.45549 0.366406 15.1063 1.63769 22.4066C1.87675 22.2745 2.11537 22.1444 2.35308 22.0148C3.06608 21.6261 3.77091 21.2418 4.45495 20.8218C4.64335 20.7074 4.75076 20.3605 4.78597 20.107C4.83663 19.7288 4.8663 19.3464 4.89595 18.9643C4.9436 18.3502 4.99121 17.7366 5.1258 17.1418C6.49217 11.1182 10.0807 7.02083 16.0004 5.31815C21.9202 3.61548 27.1532 5.14208 31.4372 9.59158C32.2283 10.4128 32.8781 11.3703 33.5394 12.3447C33.8437 12.793 34.1505 13.245 34.4745 13.6889ZM5.84699 26.5803L3.04383 28.0136C6.4439 35.8632 16.0595 41.4149 26.1207 38.0219C35.6535 34.8138 39.9551 25.1629 38.6838 17.8627C38.4448 17.9948 38.2062 18.1249 37.9685 18.2545C37.2555 18.6432 36.5506 19.0275 35.8666 19.4474C35.6782 19.5619 35.5708 19.9087 35.5356 20.1623C35.4849 20.5405 35.4552 20.9229 35.4256 21.305C35.3779 21.9191 35.3303 22.5326 35.1957 23.1274C33.8294 29.1511 30.2409 33.2484 24.3211 34.9511C18.4014 36.6538 13.1683 35.1272 8.88435 30.6777C8.09329 29.8565 7.44345 28.899 6.78212 27.9246C6.47781 27.4762 6.17106 27.0243 5.84699 26.5803Z" fill="#0D123A"></path><path d="M0 26.9946L17.4976 12.6455C17.2453 14.8057 17.0216 16.7193 16.7731 18.8585L27.4881 12.8176C27.316 14.8172 27.1554 16.662 26.9795 18.7036L39.9235 14.5897L40 14.7388L22.0512 24.6585C22.5292 22.6073 22.9631 20.7377 23.4468 18.6597L12.4431 25.1212C12.6783 23.5287 12.8847 22.137 13.1122 20.5828L0.128083 27.115L0 26.9946Z" fill="#5A6BFF"></path></svg>