<svg viewBox="0 0 40 40" focusable="false" class="chakra-icon css-1pckyyl" aria-hidden="true" xmlns="http://www.w3.org/2000/svg"><path d="M40 20C40 8.95431 31.0457 0 20 0C8.95431 0 0 8.95431 0 20C0 31.0457 8.95431 40 20 40C31.0457 40 40 31.0457 40 20Z" fill="#071927"></path><path d="M35.9965 19.6649C35.8092 10.7535 28.383 3.70195 19.4448 4.0097C10.7207 4.30407 3.8164 11.6098 4.00372 20.3473C4.13753 26.7967 8.08478 32.2827 13.6377 34.6912C14.4271 33.6877 15.0828 31.8947 15.4039 30.8912C15.7251 30.0749 16.0729 29.2721 16.4342 28.496C18.0533 29.058 20.2343 28.5228 21.4385 27.2249L21.4921 27.1714C20.047 26.5425 18.0533 26.8636 16.742 27.8805C17.1835 26.9573 17.6652 26.0608 18.1603 25.1911C19.7526 25.8333 21.9604 25.3918 23.2048 24.1608L23.2583 24.1072C21.8667 23.4248 19.8998 23.6389 18.5483 24.5488C19.0434 23.7326 19.5519 22.9298 20.0871 22.1804C21.7463 22.6889 23.9273 22.06 25.0647 20.7086L25.1048 20.6551C23.7534 20.1332 21.9871 20.441 20.7294 21.3241C20.7695 21.2706 20.823 21.2037 20.8632 21.1501C21.1843 20.7353 21.5188 20.3205 21.8533 19.9191C23.8069 19.3705 25.5464 17.3768 25.8273 15.3162L25.8407 15.236H25.8273C23.8069 15.6374 21.9336 17.6311 21.559 19.7318C21.2378 20.1198 20.9167 20.5079 20.6089 20.9093C21.1174 19.5445 21.0237 17.8719 20.2878 16.7212L20.2477 16.7747C19.1371 18.1797 18.9631 20.4677 19.8195 21.9931C19.311 22.7157 18.816 23.4516 18.3476 24.2277C18.642 22.6755 18.1469 20.8692 17.0497 19.8522L17.023 19.9191C16.3004 21.5382 16.6884 23.7727 17.8793 25.0439C17.411 25.8601 16.9694 26.7031 16.5413 27.5728C16.7955 25.9537 16.2201 24.0805 15.0694 23.0769L15.0426 23.1438C14.387 24.8432 14.8955 27.1446 16.1666 28.3756C15.8856 28.9777 15.618 29.5799 15.3638 30.2087C15.2969 30.1418 15.2166 30.1017 15.1229 30.0616C14.7884 29.9679 14.3335 29.794 13.825 29.4862C13.4905 29.2855 13.1292 29.1249 12.768 29.0045C11.3229 28.5362 11.537 27.8404 10.7876 26.4354C10.7341 26.3418 10.1454 25.7263 10.0116 25.6059C9.98481 25.5791 9.59678 25.3516 9.40945 24.9502C9.2355 24.5756 9.12846 24.2277 9.1017 23.8931C9.04818 23.4382 8.86085 23.1438 8.41929 22.9833C6.29179 22.2473 7.24181 19.491 7.32209 19.1297C7.38899 18.8219 7.108 18.1395 7.01434 17.7649C7.00096 17.7247 6.98758 17.6712 6.9742 17.5909C6.82701 16.855 7.16152 16.2261 7.41575 15.9719C7.66998 15.7177 8.5531 15.3029 8.74043 15.062C8.92775 14.8212 9.06156 14.5535 9.24889 14.3261C9.50312 14.0183 10.2524 13.4162 11.2827 12.8676C11.8982 12.5331 12.0053 11.6767 12.2461 11.4091C12.6475 10.9542 13.263 10.9542 13.718 10.5528C13.9454 10.3521 14.28 10.245 14.494 10.0309C15.5511 8.94711 16.9561 8.51894 18.3476 8.25133C19.2843 8.07738 20.328 8.34499 21.3181 8.51894C21.4653 8.5457 21.5991 8.57246 21.7329 8.6126C23.9407 8.69288 26.59 9.14782 27.5534 10.0845C28.1556 10.6732 28.4499 11.3021 28.5837 11.7436C28.7443 12.2387 28.9584 12.707 29.226 13.1352L29.8147 14.0986C30.1894 14.7007 30.3098 15.4367 30.1493 16.1325C30.0556 16.5339 30.0154 16.9487 30.1225 17.1761C30.3098 17.5374 30.8718 18.1261 31.2063 18.4607C31.3669 18.6212 31.5542 18.7684 31.7415 18.8888C32.1965 19.1698 33.0528 19.7318 33.0528 19.7719C33.0528 19.8389 33.1197 20.1065 32.7451 20.441C32.3704 20.7755 31.6479 21.2973 31.6479 21.2973C31.6479 21.2973 31.688 21.5382 31.7817 21.7255C31.8887 21.9128 32.1296 22.2072 32.0493 22.4614C31.969 22.7157 31.4472 22.9297 31.5943 23.2107C31.7415 23.5051 32.1162 23.5854 32.0091 23.853C31.9021 24.1072 31.3803 24.5622 31.4338 24.7495C31.4873 24.9368 31.9155 26.7298 30.9253 27.0376C30.1894 27.2784 28.1556 27.3988 27.2055 27.4524C26.7907 27.4791 26.4295 27.7066 26.2288 28.0679C26.0816 28.3355 25.9344 28.7101 25.8675 29.2052C25.6802 30.463 24.4358 33.3665 24.4358 33.3665C24.4358 33.3665 24.3956 33.4468 24.3421 33.5673C24.2351 33.8349 24.0745 34.2363 24.1013 34.4102C24.1146 34.5173 24.2618 34.7314 24.4759 34.9856C24.6499 35.1863 24.9308 35.2666 25.1851 35.1863C31.5943 32.9384 36.1437 26.7967 35.9965 19.6649Z" fill="#00DACC"></path></svg>