<svg viewBox="0 0 40 40" focusable="false" class="chakra-icon css-1pckyyl" aria-hidden="true" xmlns="http://www.w3.org/2000/svg"><path d="M19.4426 0C11.182 0 4.48584 6.6966 4.48584 14.9568C4.48624 15.9019 4.57474 16.8446 4.75084 17.7731L6.68294 16.4496C10.0798 14.1199 15.5896 14.1199 18.9864 16.4496L21.0141 17.8382L22.1128 18.5934C25.1747 20.6913 30.1348 20.6913 33.1936 18.5934L34.0952 17.9761C35.7532 9.87782 30.5325 1.96838 22.4339 0.310027C21.4513 0.108609 20.4513 0.00671523 19.4481 0.00592536L19.4426 0Z" fill="#F2B705"></path><path d="M27.8475 23.9419C25.5939 23.9419 23.4392 23.3305 21.8168 22.2183L18.6933 20.0774C17.1976 19.0494 15.1893 18.4834 13.0432 18.4834C10.8968 18.4834 8.88846 19.0462 7.39276 20.0774L5.37306 21.4605C4.97336 21.7342 4.42716 21.6319 4.15356 21.2326C3.87986 20.8325 3.98176 20.2863 4.38176 20.0126L6.40116 18.6295C8.18706 17.4044 10.5445 16.7311 13.0432 16.7311C15.5412 16.7311 17.899 17.4044 19.6849 18.6295L22.8085 20.7705C25.9012 22.6634 29.7937 22.6634 32.8865 20.7705L34.0725 19.9593C34.4722 19.6856 35.0184 19.7871 35.2921 20.1872C35.5658 20.5872 35.4639 21.1331 35.0638 21.4067L33.8782 22.2183C32.2471 23.3337 30.101 23.9419 27.8475 23.9419Z" fill="#53CBC8"></path><path d="M12.9784 30.223V21.7729C12.9717 21.5952 12.9792 21.4171 13.0009 21.2405C13.0554 20.7591 13.463 20.3954 13.9472 20.3958C14.4168 20.4084 14.8015 20.7725 14.8402 21.2405C14.8761 21.534 14.8864 21.8298 14.871 22.1252V38.4425V38.9745C14.8204 39.5997 14.429 40.0112 13.9022 39.9998C13.3753 39.9887 12.995 39.5606 12.9926 38.9267V33.3099L12.9784 30.223Z" fill="#53CBC8"></path><path d="M11.2011 25.9697V30.1695C11.2011 30.8879 10.818 31.3638 10.2746 31.3468C9.7307 31.3299 9.31959 30.8457 9.31689 30.1612V21.7648C9.31689 21.0294 9.74499 20.5334 10.3026 20.5618C10.8603 20.5899 11.1928 21.035 11.1956 21.77C11.2039 23.17 11.2011 24.5701 11.2011 25.9697Z" fill="#53CBC8"></path><path d="M16.6568 25.9642V23.0121C16.6568 22.3276 17.0202 21.8857 17.5608 21.8857C18.1019 21.8857 18.5186 22.3418 18.5245 22.9868C18.545 24.9962 18.545 27.0045 18.5245 29.012C18.5245 29.6964 18.1213 30.1075 17.5664 30.102C17.0115 30.0965 16.6568 29.6763 16.6509 28.9753V25.9615L16.6568 25.9642Z" fill="#53CBC8"></path><path d="M5.65493 26.5783V23.6262C5.65493 22.9421 6.01823 22.4998 6.55893 22.4998C7.10002 22.4998 7.51662 22.956 7.52252 23.6009C7.54112 25.6104 7.54112 27.6186 7.52252 29.6261C7.52252 30.3105 7.11653 30.7217 6.56443 30.7161C6.01273 30.7106 5.65493 30.2904 5.64893 29.5894V26.5756L5.65493 26.5783Z" fill="#53CBC8"></path><path d="M21.2426 24.0656H21.2454C21.7572 24.0656 22.1723 24.4807 22.1723 24.9926V26.598C22.1723 27.1098 21.7572 27.5249 21.2454 27.5249H21.2426C20.7308 27.5249 20.3157 27.1098 20.3157 26.598V24.9926C20.3157 24.4807 20.7308 24.0656 21.2426 24.0656Z" fill="#53CBC8"></path><path d="M24.9153 25.4715H24.9181C25.4299 25.4715 25.845 25.8866 25.845 26.3984V35.403C25.845 35.9149 25.4299 36.3296 24.9181 36.3296H24.9153C24.4035 36.3296 23.9888 35.9149 23.9888 35.403V26.3984C23.9888 25.8866 24.4035 25.4715 24.9153 25.4715Z" fill="#53CBC8"></path><path d="M28.563 25.8205H28.5658C29.0776 25.8205 29.4927 26.2356 29.4927 26.7474V34.4006C29.4927 34.9124 29.0776 35.3267 28.5658 35.3267H28.563C28.0512 35.3267 27.6365 34.9124 27.6365 34.4006V26.7474C27.6365 26.2356 28.0512 25.8205 28.563 25.8205Z" fill="#53CBC8"></path><path d="M32.2611 24.9473H32.2638C32.7757 24.9473 33.1908 25.3624 33.1908 25.8742V29.1751C33.1908 29.6869 32.7757 30.102 32.2638 30.102H32.2611C31.7492 30.102 31.3345 29.6869 31.3345 29.1751V25.8742C31.3345 25.3624 31.7492 24.9473 32.2611 24.9473Z" fill="#53CBC8"></path></svg>