<svg viewBox="0 0 40 40" focusable="false" class="chakra-icon css-1pckyyl" aria-hidden="true" xmlns="http://www.w3.org/2000/svg"><path d="M23.8144 3C20.4967 3.00141 17.3155 4.32057 14.9703 6.66734C12.6252 9.0141 11.3083 12.1963 11.3092 15.514V15.514C11.3092 15.5227 11.3092 15.5314 11.3092 15.5401V15.5599C11.3181 15.7171 11.3869 15.8649 11.5014 15.973C11.6159 16.081 11.7674 16.1411 11.9249 16.1408H35.7059C35.8634 16.1412 36.015 16.0812 36.1295 15.9731C36.244 15.865 36.3128 15.7172 36.3216 15.5599V15.5401C36.3216 15.5314 36.3216 15.5227 36.3216 15.514C36.322 13.871 35.9989 12.2441 35.3706 10.7261C34.7423 9.20809 33.8211 7.82869 32.6597 6.66666C31.4983 5.50463 30.1194 4.58273 28.6018 3.9536C27.0841 3.32448 25.4573 3.00044 23.8144 3V3Z" fill="#53CBC8"></path><path d="M3.02735 29.4864C3.02735 29.637 2.98267 29.7842 2.899 29.9094C2.81534 30.0346 2.69642 30.1322 2.55729 30.1899C2.41816 30.2475 2.26507 30.2626 2.11737 30.2332C1.96966 30.2038 1.83398 30.1313 1.72749 30.0248C1.62101 29.9183 1.54849 29.7827 1.51911 29.635C1.48973 29.4873 1.50483 29.3341 1.56246 29.195C1.62009 29.0559 1.71768 28.937 1.8429 28.8533C1.96811 28.7696 2.11532 28.725 2.26592 28.725C2.46786 28.725 2.66152 28.8052 2.80431 28.948C2.94711 29.0908 3.02735 29.2845 3.02735 29.4864Z" fill="#E1147B"></path><path d="M34.8786 25.2726H9.36129C9.23151 25.2728 9.10398 25.3066 8.99119 25.3708C8.87839 25.435 8.78418 25.5274 8.71775 25.6389C8.65132 25.7504 8.61495 25.8772 8.61218 26.007C8.60942 26.1367 8.64037 26.265 8.702 26.3792L8.71459 26.4029C8.77885 26.5218 8.8741 26.6211 8.99027 26.6902C9.10644 26.7594 9.23917 26.7957 9.37435 26.7955H34.8655C35.0007 26.7957 35.1334 26.7593 35.2496 26.6902C35.3657 26.6211 35.461 26.5218 35.5253 26.4029L35.5379 26.3792C35.5994 26.265 35.6302 26.1368 35.6274 26.0071C35.6245 25.8774 35.5882 25.7506 35.5218 25.6391C35.4554 25.5277 35.3612 25.4353 35.2485 25.3711C35.1358 25.3069 35.0083 25.2729 34.8786 25.2726V25.2726Z" fill="#E1147B"></path><path d="M38.269 18.369H9.35981C9.25775 18.3692 9.15682 18.3902 9.06315 18.4307C8.96949 18.4713 8.88507 18.5305 8.81504 18.6047C8.74501 18.679 8.69085 18.7667 8.65585 18.8626C8.62085 18.9584 8.60575 19.0604 8.61147 19.1623C8.61147 19.1701 8.61147 19.1783 8.61147 19.186C8.62225 19.3771 8.70582 19.5567 8.84502 19.688C8.98423 19.8193 9.16847 19.8922 9.35981 19.8918H38.266C38.4574 19.8921 38.6415 19.8192 38.7807 19.6879C38.9199 19.5566 39.0035 19.3771 39.0144 19.186C39.0144 19.1783 39.0144 19.1701 39.0144 19.1623C39.0201 19.0607 39.0051 18.9589 38.9703 18.8632C38.9355 18.7676 38.8815 18.68 38.8118 18.6058C38.7421 18.5316 38.658 18.4723 38.5647 18.4316C38.4714 18.3909 38.3708 18.3696 38.269 18.369V18.369Z" fill="#E1147B"></path><path d="M27.3834 35.6286H14.3553C14.1865 35.6291 14.0228 35.6864 13.8906 35.7914C13.7584 35.8964 13.6654 36.0429 13.6268 36.2073C13.5882 36.3716 13.6061 36.5442 13.6777 36.6971C13.7493 36.85 13.8704 36.9743 14.0213 37.0499L14.0697 37.0736C14.1735 37.1251 14.2878 37.1518 14.4037 37.1515H27.3364C27.4524 37.1518 27.567 37.1252 27.6709 37.0736L27.7193 37.0499C27.8704 36.9742 27.9915 36.8498 28.0631 36.6967C28.1347 36.5436 28.1524 36.3708 28.1136 36.2063C28.0747 36.0419 27.9814 35.8954 27.8489 35.7905C27.7164 35.6857 27.5524 35.6286 27.3834 35.6286V35.6286Z" fill="#E1147B"></path><path d="M35.3457 32.1768H22.3153C22.1465 32.1772 21.9827 32.2346 21.8505 32.3396C21.7183 32.4446 21.6254 32.5911 21.5868 32.7554C21.5481 32.9198 21.5661 33.0924 21.6377 33.2453C21.7093 33.3982 21.8303 33.5224 21.9813 33.598L22.0297 33.6217C22.1336 33.6733 22.2481 33.6999 22.3642 33.6997H35.2973C35.4133 33.7 35.5279 33.6733 35.6318 33.6217L35.6802 33.598C35.8312 33.5224 35.9523 33.3981 36.0239 33.2451C36.0955 33.0922 36.1134 32.9196 36.0747 32.7552C36.036 32.5908 35.943 32.4443 35.8107 32.3394C35.6784 32.2344 35.5146 32.1771 35.3457 32.1768V32.1768Z" fill="#E1147B"></path><path d="M17.5787 30.0087L17.5564 29.985C17.4576 29.878 17.392 29.7445 17.3678 29.6008C17.3436 29.4571 17.3618 29.3095 17.4201 29.176C17.4785 29.0425 17.5744 28.9289 17.6963 28.8491C17.8182 28.7692 17.9606 28.7266 18.1063 28.7264H39.2511C39.3968 28.7266 39.5393 28.7692 39.6611 28.8491C39.783 28.9289 39.879 29.0425 39.9373 29.176C39.9956 29.3095 40.0138 29.4571 39.9896 29.6008C39.9654 29.7445 39.8998 29.878 39.801 29.985L39.7787 30.0087C39.7084 30.084 39.6233 30.1442 39.5289 30.1854C39.4344 30.2266 39.3324 30.248 39.2293 30.2483H18.1286C18.0254 30.2481 17.9234 30.2267 17.8288 30.1855C17.7342 30.1443 17.6491 30.0841 17.5787 30.0087Z" fill="#E1147B"></path><path d="M4.98536 28.725H15.0824C15.2512 28.7254 15.415 28.7827 15.5472 28.8877C15.6794 28.9927 15.7723 29.1393 15.8109 29.3036C15.8495 29.468 15.8316 29.6405 15.76 29.7934C15.6884 29.9463 15.5674 30.0706 15.4164 30.1462L15.368 30.1699C15.2642 30.2214 15.1499 30.2481 15.034 30.2478H5.03328C4.91724 30.2482 4.80273 30.2215 4.6988 30.1699L4.65038 30.1462C4.49934 30.0706 4.37826 29.9462 4.30668 29.7932C4.23511 29.6402 4.21723 29.4675 4.25598 29.3031C4.29473 29.1387 4.38784 28.9922 4.5202 28.8873C4.65257 28.7824 4.81645 28.7252 4.98536 28.725V28.725Z" fill="#E1147B"></path><path d="M7.40323 19.1318C7.40314 19.2823 7.35842 19.4294 7.27477 19.5544C7.19112 19.6795 7.07229 19.7769 6.93326 19.8345C6.79424 19.892 6.64126 19.907 6.4937 19.8777C6.34613 19.8483 6.2106 19.7758 6.10421 19.6694C5.99782 19.563 5.92535 19.4275 5.89598 19.2799C5.8666 19.1324 5.88164 18.9794 5.93917 18.8404C5.9967 18.7014 6.09416 18.5825 6.21923 18.4988C6.34429 18.4152 6.49134 18.3705 6.6418 18.3704C6.84375 18.3704 7.0374 18.4506 7.1802 18.5934C7.32299 18.7362 7.40323 18.9299 7.40323 19.1318Z" fill="#E1147B"></path><path d="M25.3455 22.786L25.3518 22.7623C25.3816 22.6511 25.3854 22.5345 25.3629 22.4215C25.3403 22.3086 25.2921 22.2024 25.2218 22.1112C25.1516 22.0199 25.0613 21.9461 24.9579 21.8954C24.8545 21.8447 24.7408 21.8185 24.6257 21.8189H3.47992C3.36477 21.8185 3.25111 21.8447 3.14772 21.8954C3.04433 21.9461 2.954 22.0199 2.88377 22.1112C2.81353 22.2024 2.76528 22.3086 2.74275 22.4215C2.72021 22.5345 2.724 22.6511 2.75383 22.7623C2.75383 22.77 2.75818 22.7783 2.76012 22.786C2.80315 22.9456 2.89762 23.0866 3.02889 23.187C3.16016 23.2875 3.32091 23.3419 3.48621 23.3417H24.6213C24.7866 23.3418 24.9473 23.2874 25.0786 23.187C25.2098 23.0865 25.3043 22.9456 25.3474 22.786" fill="#E1147B"></path><path d="M1.52188 22.5822C1.52178 22.7327 1.47709 22.8798 1.39342 23.0048C1.30974 23.1299 1.19084 23.2274 1.05179 23.2849C0.912736 23.3424 0.759769 23.3574 0.612192 23.328C0.464615 23.2986 0.329075 23.2261 0.222703 23.1196C0.116331 23.0132 0.0439115 22.8776 0.0145894 22.73C-0.0147326 22.5824 0.000352842 22.4294 0.0579612 22.2904C0.11557 22.1514 0.213097 22.0326 0.338223 21.949C0.463349 21.8654 0.61047 21.8208 0.76095 21.8208C0.962809 21.8209 1.15636 21.9012 1.29905 22.044C1.44174 22.1868 1.52188 22.3804 1.52188 22.5822Z" fill="#E1147B"></path><path d="M7.40323 26.0341C7.40314 26.1845 7.35842 26.3316 7.27477 26.4566C7.19112 26.5817 7.07229 26.6792 6.93326 26.7367C6.79424 26.7942 6.64126 26.8093 6.4937 26.7799C6.34613 26.7505 6.2106 26.678 6.10421 26.5717C5.99782 26.4653 5.92535 26.3297 5.89598 26.1822C5.8666 26.0346 5.88164 25.8816 5.93917 25.7426C5.9967 25.6036 6.09416 25.4847 6.21923 25.4011C6.34429 25.3174 6.49134 25.2727 6.6418 25.2726C6.84375 25.2726 7.0374 25.3529 7.1802 25.4957C7.32299 25.6385 7.40323 25.8321 7.40323 26.0341Z" fill="#E1147B"></path><path d="M20.3582 32.9382C20.3582 33.0888 20.3135 33.236 20.2299 33.3613C20.1462 33.4865 20.0273 33.5841 19.8882 33.6417C19.749 33.6993 19.5959 33.7144 19.4482 33.685C19.3005 33.6556 19.1649 33.5831 19.0584 33.4766C18.9519 33.3701 18.8794 33.2345 18.85 33.0868C18.8206 32.9391 18.8357 32.786 18.8933 32.6468C18.9509 32.5077 19.0485 32.3888 19.1737 32.3051C19.299 32.2214 19.4462 32.1768 19.5968 32.1768C19.7987 32.1768 19.9924 32.257 20.1352 32.3998C20.278 32.5426 20.3582 32.7363 20.3582 32.9382Z" fill="#E1147B"></path><path d="M12.3978 36.3882C12.3977 36.5387 12.353 36.6857 12.2693 36.8108C12.1857 36.9359 12.0668 37.0333 11.9277 37.0908C11.7887 37.1484 11.6357 37.1634 11.4881 37.134C11.3405 37.1045 11.205 37.032 11.0986 36.9256C10.9922 36.8191 10.9198 36.6836 10.8905 36.536C10.8612 36.3884 10.8763 36.2354 10.9339 36.0964C10.9915 35.9574 11.089 35.8385 11.2141 35.7549C11.3393 35.6714 11.4864 35.6268 11.6368 35.6268C11.8387 35.6269 12.0322 35.7072 12.1749 35.8499C12.3176 35.9927 12.3978 36.1863 12.3978 36.3882V36.3882Z" fill="#E1147B"></path></svg>