<svg viewBox="0 0 40 40" focusable="false" class="chakra-icon css-1pckyyl" aria-hidden="true" xmlns="http://www.w3.org/2000/svg"><path fill-rule="evenodd" clip-rule="evenodd" d="M40 4.63909V33.2823C39.9936 33.2919 39.986 33.3016 39.9785 33.3112C39.9635 33.3305 39.9485 33.3499 39.9421 33.3692C39.7199 33.7168 39.4689 33.9583 38.9957 33.9196C38.4082 33.8633 37.8207 33.8405 37.2332 33.8177C37.1157 33.8131 36.9982 33.8086 36.8807 33.8037C35.7267 33.7458 34.5703 33.6854 33.4138 33.6251L33.4137 33.6251C32.2573 33.5647 31.1009 33.5044 29.9469 33.4464C28.7623 33.3853 27.5777 33.323 26.393 33.2608C24.0238 33.1363 21.6546 33.0119 19.2854 32.896C19.1115 32.8863 18.9087 32.9539 18.7735 33.0505C17.2968 34.0832 15.8298 35.1256 14.3627 36.168L14.3624 36.1682L14.3602 36.1698H14.0222C13.9063 36.0249 13.858 35.8607 13.9546 35.6869C13.9788 35.6386 13.9981 35.5855 14.0174 35.5324C14.0367 35.4793 14.056 35.4262 14.0802 35.3779C14.8358 33.9878 15.5967 32.6029 16.359 31.2156L16.3593 31.215C16.6296 30.7231 16.9 30.2309 17.1704 29.7381C17.4698 29.1973 17.8464 29.0428 18.4549 29.091C18.5441 29.0975 18.6335 29.1042 18.7231 29.1109C19.4388 29.1644 20.1654 29.2187 20.8691 29.1586C26.2965 28.6951 30.2656 23.7603 29.5992 18.3523C28.9329 12.9539 23.9788 9.12967 18.5804 9.95053C14.8334 10.5203 12.197 12.6449 10.8933 16.1987C9.58957 19.7622 10.2849 23.0553 12.7378 25.9621C13.3366 26.6768 14.0608 27.2465 14.8431 27.7487C15.2294 27.9998 15.3646 28.4247 15.1811 28.782C14.9944 29.1297 14.8087 29.4784 14.6231 29.8271C14.2518 30.5246 13.8806 31.2221 13.5007 31.9109C13.3076 32.2683 12.9889 32.5387 12.564 32.5193C11.5293 32.4849 10.4947 32.4257 9.46003 32.3666C9.0461 32.343 8.63218 32.3193 8.21825 32.2972C7.63014 32.2663 7.04202 32.2347 6.45376 32.2032L6.4534 32.2032C4.65587 32.1068 2.85699 32.0103 1.05263 31.9303C0.704973 31.9109 0.434573 31.8144 0.222115 31.5536C0.173536 31.4929 0.128775 31.4284 0.0830305 31.3624C0.0560258 31.3235 0.0286782 31.284 0 31.2446V6.66709C0.0386287 6.61881 0.0772574 6.57052 0.106229 6.51258C0.289715 6.26149 0.473201 6.01041 0.820859 5.99109L3.03339 5.87515L5.24384 5.75932C6.41239 5.70138 7.58335 5.64102 8.75432 5.58066C9.92522 5.5203 11.0961 5.45995 12.2646 5.402L12.2651 5.40198L12.2651 5.40198C15.3166 5.23781 18.3681 5.07365 21.4293 4.91915C23.6606 4.79928 25.9007 4.68822 28.1329 4.57756L28.45 4.56183C31.9652 4.37835 35.4804 4.19486 38.9957 4.00171C39.3723 3.9824 39.6234 4.12726 39.8358 4.388C39.9034 4.46526 39.9517 4.55217 40 4.63909ZM20.0966 27.0823C21.5838 26.725 22.8296 25.9525 23.7663 24.755C25.3597 22.7077 25.9971 20.4092 25.3694 17.8404C25.1859 17.0775 24.8093 16.4015 24.2974 15.8124C22.6654 13.8907 19.9807 13.9293 18.3583 15.8704C16.4558 18.1591 16.7455 21.9737 18.986 23.7989C18.998 23.8109 19.01 23.8246 19.0241 23.8406C19.044 23.8632 19.068 23.8905 19.1019 23.9245C18.4935 24.021 17.943 23.9341 17.4312 23.683C16.2627 23.1229 15.606 22.1379 15.2777 20.9307C14.563 18.275 15.8957 14.3639 19.1405 12.9732C21.6224 11.9109 24.4906 12.7608 26.1613 15.0399C29.4737 19.5691 26.9049 26.0007 21.3713 27.0147C21.0959 27.066 20.8162 27.0917 20.5379 27.1174C20.3966 27.1304 20.2557 27.1433 20.1159 27.1596C20.1115 27.1463 20.1091 27.133 20.1068 27.1207C20.1042 27.1061 20.1018 27.0928 20.0966 27.0823ZM22.2791 15.2523C21.8446 15.0882 21.4003 15.0399 20.9078 15.1364C20.9333 15.1619 20.9507 15.1847 20.9672 15.2063C20.9819 15.2255 20.9958 15.2437 21.014 15.262C23.2642 17.0872 23.5539 20.9114 21.6611 23.1905C20.2222 24.9192 17.8948 25.1799 16.2241 23.77C15.5288 23.1905 15.0556 22.4469 14.7562 21.5971C14.1671 19.9554 14.312 18.3136 14.9011 16.7106C15.7605 14.3349 17.3443 12.6835 19.8359 12.0075C19.8455 12.0027 19.8576 11.9955 19.8697 11.9882C19.8817 11.981 19.8938 11.9737 19.9035 11.9689C19.411 11.9689 18.9281 11.9882 18.4645 12.0848C13.1241 13.1953 10.6422 19.3566 13.7229 23.8569C15.2101 26.0201 17.7692 27.0244 20.1835 26.3291C21.9991 25.8076 23.2642 24.6005 24.0947 22.9394C24.8866 21.3557 25.1859 19.685 24.6741 17.9563C24.2975 16.7009 23.5539 15.7255 22.2791 15.2523Z" fill="#EC502C"></path></svg>