<svg viewBox="0 0 40 40" focusable="false" class="chakra-icon css-1pckyyl" aria-hidden="true" xmlns="http://www.w3.org/2000/svg"><path d="M0 20C0 8.95431 8.95431 0 20 0C31.0457 0 40 8.95431 40 20C40 31.0457 31.0457 40 20 40C8.95431 40 0 31.0457 0 20Z" fill="white"></path><path d="M18.3856 18.3854C19.4467 18.6453 20.5549 18.6453 21.616 18.3854C21.9123 17.1794 22.5332 16.0776 23.4114 15.1995C24.2895 14.3214 25.3913 13.7005 26.5973 13.4042C26.8417 12.4045 26.8558 11.3624 26.6384 10.3566C26.421 9.35073 25.9778 8.40744 25.3424 7.59796C24.707 6.78848 23.896 6.13399 22.9706 5.68393C22.0451 5.23387 21.0295 5 20.0004 5C18.9714 5 17.9557 5.23387 17.0303 5.68393C16.1049 6.13399 15.2938 6.78848 14.6584 7.59796C14.023 8.40744 13.5799 9.35073 13.3625 10.3566C13.1451 11.3624 13.1591 12.4045 13.4036 13.4042C14.6097 13.7003 15.7117 14.3212 16.5899 15.1993C17.4682 16.0774 18.0892 17.1793 18.3856 18.3854Z" fill="#7ABDF7"></path><path d="M21.616 21.6146C20.5549 21.3548 19.4467 21.3548 18.3855 21.6146C18.089 22.8205 17.468 23.9222 16.59 24.8003C15.7119 25.6784 14.6102 26.2993 13.4043 26.5959C13.1599 27.5955 13.1458 28.6376 13.3632 29.6435C13.5806 30.6493 14.0237 31.5926 14.6591 32.4021C15.2945 33.2115 16.1056 33.866 17.031 34.3161C17.9565 34.7662 18.9721 35 20.0012 35C21.0302 35 22.0458 34.7662 22.9713 34.3161C23.8967 33.866 24.7078 33.2115 25.3432 32.4021C25.9786 31.5926 26.4217 30.6493 26.6391 29.6435C26.8565 28.6376 26.8424 27.5955 26.598 26.5959C25.3919 26.2997 24.2899 25.6789 23.4117 24.8007C22.5334 23.9226 21.9124 22.8207 21.616 21.6146Z" fill="#0D74F5"></path><path d="M28.2118 13.2086C27.6677 13.2085 27.1257 13.2739 26.5973 13.4033C26.3011 14.6091 25.6803 15.7108 24.8023 16.5888C23.9243 17.4668 22.8226 18.0876 21.6168 18.3838C21.3569 19.4449 21.3569 20.5531 21.6168 21.6143C22.8226 21.9107 23.9243 22.5316 24.8023 23.4098C25.6802 24.2879 26.301 25.3896 26.5973 26.5955C27.5301 26.8234 28.5006 26.8508 29.4447 26.6761C30.3889 26.5013 31.2853 26.1283 32.0747 25.5817C32.8641 25.0351 33.5287 24.3273 34.0245 23.505C34.5203 22.6827 34.8361 21.7646 34.9511 20.8113C35.066 19.858 34.9775 18.8912 34.6914 17.9746C34.4053 17.058 33.928 16.2126 33.2912 15.494C32.6543 14.7754 31.8723 14.2 30.9967 13.8058C30.1212 13.4116 29.172 13.2075 28.2118 13.2071V13.2086Z" fill="#4494F7"></path><path d="M18.3854 21.6146C18.6453 20.5535 18.6453 19.4453 18.3854 18.3841C17.1795 18.0879 16.0778 17.4671 15.1996 16.5891C14.3215 15.7111 13.7006 14.6095 13.4042 13.4036C12.4045 13.1592 11.3624 13.1452 10.3566 13.3625C9.35073 13.5799 8.40744 14.0231 7.59796 14.6585C6.78848 15.2939 6.13399 16.1049 5.68393 17.0304C5.23387 17.9558 5 18.9714 5 20.0005C5 21.0296 5.23387 22.0452 5.68393 22.9706C6.13399 23.896 6.78848 24.7071 7.59796 25.3425C8.40744 25.9779 9.35073 26.421 10.3566 26.6384C11.3624 26.8558 12.4045 26.8418 13.4042 26.5974C13.7003 25.3911 14.3211 24.289 15.1992 23.4106C16.0774 22.5323 17.1793 21.9111 18.3854 21.6146Z" fill="#005CF4"></path><path d="M21.6162 18.3853C22.8221 18.0888 23.9238 17.4678 24.8019 16.5898C25.68 15.7117 26.3009 14.61 26.5975 13.4041C25.3915 13.7004 24.2897 14.3213 23.4115 15.1994C22.5334 16.0775 21.9125 17.1794 21.6162 18.3853Z" fill="#186EF9"></path><path d="M21.6162 21.6145C21.9125 22.8205 22.5334 23.9223 23.4115 24.8005C24.2897 25.6786 25.3915 26.2995 26.5975 26.5958C26.3009 25.3899 25.68 24.2882 24.8019 23.4101C23.9238 22.532 22.8221 21.9111 21.6162 21.6145Z" fill="#0246F2"></path><path d="M18.3856 18.3853C18.089 17.1795 17.4681 16.0778 16.59 15.1997C15.7119 14.3216 14.6102 13.7006 13.4043 13.4041C13.7008 14.61 14.3218 15.7117 15.1999 16.5898C16.078 17.4678 17.1797 18.0888 18.3856 18.3853Z" fill="#0046F8"></path><path d="M18.3856 21.6145C17.1797 21.9111 16.078 22.532 15.1999 23.4101C14.3218 24.2882 13.7008 25.3899 13.4043 26.5958C14.6102 26.2993 15.7119 25.6783 16.59 24.8002C17.4681 23.9221 18.089 22.8204 18.3856 21.6145Z" fill="#0729F1"></path><path d="M18.3856 18.3854C19.4467 18.6453 20.5549 18.6453 21.616 18.3854C21.9123 17.1794 22.5332 16.0776 23.4114 15.1995C24.2895 14.3214 25.3913 13.7005 26.5973 13.4042C26.8417 12.4045 26.8558 11.3624 26.6384 10.3566C26.421 9.35073 25.9778 8.40744 25.3424 7.59796C24.707 6.78848 23.896 6.13399 22.9706 5.68393C22.0451 5.23387 21.0295 5 20.0004 5C18.9714 5 17.9557 5.23387 17.0303 5.68393C16.1049 6.13399 15.2938 6.78848 14.6584 7.59796C14.023 8.40744 13.5799 9.35073 13.3625 10.3566C13.1451 11.3624 13.1591 12.4045 13.4036 13.4042C14.6097 13.7003 15.7117 14.3212 16.5899 15.1993C17.4682 16.0774 18.0892 17.1793 18.3856 18.3854Z" fill="#7ABDF7"></path><path d="M21.616 21.6146C20.5549 21.3548 19.4467 21.3548 18.3855 21.6146C18.089 22.8205 17.468 23.9222 16.59 24.8003C15.7119 25.6784 14.6102 26.2993 13.4043 26.5959C13.1599 27.5955 13.1458 28.6376 13.3632 29.6435C13.5806 30.6493 14.0237 31.5926 14.6591 32.4021C15.2945 33.2115 16.1056 33.866 17.031 34.3161C17.9565 34.7662 18.9721 35 20.0012 35C21.0302 35 22.0458 34.7662 22.9713 34.3161C23.8967 33.866 24.7078 33.2115 25.3432 32.4021C25.9786 31.5926 26.4217 30.6493 26.6391 29.6435C26.8565 28.6376 26.8424 27.5955 26.598 26.5959C25.3919 26.2997 24.2899 25.6789 23.4117 24.8007C22.5334 23.9226 21.9124 22.8207 21.616 21.6146Z" fill="#0D74F5"></path><path d="M28.2118 13.2086C27.6677 13.2085 27.1257 13.2739 26.5973 13.4033C26.3011 14.6091 25.6803 15.7108 24.8023 16.5888C23.9243 17.4668 22.8226 18.0876 21.6168 18.3838C21.3569 19.4449 21.3569 20.5531 21.6168 21.6143C22.8226 21.9107 23.9243 22.5316 24.8023 23.4098C25.6802 24.2879 26.301 25.3896 26.5973 26.5955C27.5301 26.8234 28.5006 26.8508 29.4447 26.6761C30.3889 26.5013 31.2853 26.1283 32.0747 25.5817C32.8641 25.0351 33.5287 24.3273 34.0245 23.505C34.5203 22.6827 34.8361 21.7646 34.9511 20.8113C35.066 19.858 34.9775 18.8912 34.6914 17.9746C34.4053 17.058 33.928 16.2126 33.2912 15.494C32.6543 14.7754 31.8723 14.2 30.9967 13.8058C30.1212 13.4116 29.172 13.2075 28.2118 13.2071V13.2086Z" fill="#4494F7"></path><path d="M18.3854 21.6146C18.6453 20.5535 18.6453 19.4453 18.3854 18.3841C17.1795 18.0879 16.0778 17.4671 15.1996 16.5891C14.3215 15.7111 13.7006 14.6095 13.4042 13.4036C12.4045 13.1592 11.3624 13.1452 10.3566 13.3625C9.35073 13.5799 8.40744 14.0231 7.59796 14.6585C6.78848 15.2939 6.13399 16.1049 5.68393 17.0304C5.23387 17.9558 5 18.9714 5 20.0005C5 21.0296 5.23387 22.0452 5.68393 22.9706C6.13399 23.896 6.78848 24.7071 7.59796 25.3425C8.40744 25.9779 9.35073 26.421 10.3566 26.6384C11.3624 26.8558 12.4045 26.8418 13.4042 26.5974C13.7003 25.3911 14.3211 24.289 15.1992 23.4106C16.0774 22.5323 17.1793 21.9111 18.3854 21.6146Z" fill="#005CF4"></path><path d="M21.6162 18.3853C22.8221 18.0888 23.9238 17.4678 24.8019 16.5898C25.68 15.7117 26.3009 14.61 26.5975 13.4041C25.3915 13.7004 24.2897 14.3213 23.4115 15.1994C22.5334 16.0775 21.9125 17.1794 21.6162 18.3853Z" fill="#186EF9"></path><path d="M21.6162 21.6145C21.9125 22.8205 22.5334 23.9223 23.4115 24.8005C24.2897 25.6786 25.3915 26.2995 26.5975 26.5958C26.3009 25.3899 25.68 24.2882 24.8019 23.4101C23.9238 22.532 22.8221 21.9111 21.6162 21.6145Z" fill="#0246F2"></path><path d="M18.3856 18.3853C18.089 17.1795 17.4681 16.0778 16.59 15.1997C15.7119 14.3216 14.6102 13.7006 13.4043 13.4041C13.7008 14.61 14.3218 15.7117 15.1999 16.5898C16.078 17.4678 17.1797 18.0888 18.3856 18.3853Z" fill="#0046F8"></path><path d="M18.3856 21.6145C17.1797 21.9111 16.078 22.532 15.1999 23.4101C14.3218 24.2882 13.7008 25.3899 13.4043 26.5958C14.6102 26.2993 15.7119 25.6783 16.59 24.8002C17.4681 23.9221 18.089 22.8204 18.3856 21.6145Z" fill="#0729F1"></path></svg>