<svg viewBox="0 0 40 40" focusable="false" class="chakra-icon css-1pckyyl" aria-hidden="true" xmlns="http://www.w3.org/2000/svg"><path d="M20 40C31.0457 40 40 31.0457 40 20C40 8.95431 31.0457 0 20 0C8.95431 0 0 8.95431 0 20C0 31.0457 8.95431 40 20 40Z" fill="#FF0420"></path><path d="M14.5054 25.6C13.2991 25.6 12.3108 25.3096 11.5403 24.7289C10.7801 24.1378 10.3999 23.2978 10.3999 22.2089C10.3999 21.9807 10.4253 21.7007 10.4759 21.3689C10.6077 20.6222 10.7953 19.7252 11.0385 18.6778C11.7278 15.8259 13.5069 14.4 16.3757 14.4C17.1563 14.4 17.8557 14.5348 18.4741 14.8045C19.0925 15.0637 19.579 15.4578 19.9338 15.9866C20.2886 16.5052 20.4661 17.1274 20.4661 17.8534C20.4661 18.0711 20.4407 18.3459 20.39 18.6778C20.238 19.6007 20.0555 20.4978 19.8426 21.3689C19.4878 22.7896 18.8745 23.8526 18.0027 24.5578C17.1309 25.2526 15.9652 25.6 14.5054 25.6ZM14.7183 23.36C15.286 23.36 15.7675 23.1889 16.1629 22.8466C16.5683 22.5045 16.8573 21.9807 17.0296 21.2755C17.2627 20.3007 17.4401 19.4504 17.5617 18.7245C17.6023 18.5066 17.6225 18.2837 17.6225 18.0555C17.6225 17.1118 17.1411 16.64 16.1781 16.64C15.6104 16.64 15.1238 16.8111 14.7183 17.1534C14.3229 17.4955 14.0391 18.0193 13.8668 18.7245C13.6843 19.4193 13.5018 20.2696 13.3194 21.2755C13.2789 21.483 13.2585 21.7007 13.2585 21.9289C13.2585 22.883 13.7451 23.36 14.7183 23.36Z" fill="white"></path><path d="M21.1644 25.4445C21.0529 25.4445 20.9667 25.4081 20.9058 25.3355C20.8552 25.2525 20.84 25.1593 20.8602 25.0555L22.9586 14.9445C22.9789 14.8304 23.0346 14.737 23.1259 14.6645C23.2171 14.5918 23.3134 14.5555 23.4148 14.5555H27.4595C28.5847 14.5555 29.4869 14.7941 30.1661 15.2711C30.8554 15.7482 31.2001 16.4378 31.2001 17.34C31.2001 17.5993 31.1697 17.8689 31.1089 18.1489C30.8554 19.3415 30.3435 20.2229 29.573 20.7933C28.8128 21.3637 27.7686 21.6489 26.4407 21.6489H24.3879L23.6885 25.0555C23.6682 25.1696 23.6125 25.2629 23.5212 25.3355C23.43 25.4081 23.3337 25.4445 23.2323 25.4445H21.1644ZM26.5471 19.5022C26.9729 19.5022 27.3429 19.3829 27.6572 19.1445C27.9815 18.9059 28.1944 18.5637 28.2958 18.1178C28.3262 17.9415 28.3414 17.7859 28.3414 17.6511C28.3414 17.3504 28.2553 17.1222 28.083 16.9666C27.9106 16.8007 27.6166 16.7178 27.201 16.7178H25.3763L24.7985 19.5022H26.5471Z" fill="white"></path></svg>