<svg viewBox="0 0 40 40" focusable="false" class="chakra-icon css-1pckyyl" aria-hidden="true" xmlns="http://www.w3.org/2000/svg"><path d="M0 20C0 8.95431 8.95431 0 20 0V0C31.0457 0 40 8.95431 40 20V20C40 31.0457 31.0457 40 20 40V40C8.95431 40 0 31.0457 0 20V20Z" fill="#03020A"></path><path d="M26.4161 12.064C24.0944 12.7255 20.6685 14.1089 17.5303 16.9447C14.3767 19.9128 16.5177 22.5598 16.5398 22.5861C16.5398 22.5861 15.384 20.4546 18.1794 17.8283C18.2148 17.7973 21.7831 14.7156 26.9727 13.2373C27.6344 13.0488 28.3032 12.8919 28.9608 12.771L29.0065 12.7627L29.842 11.4086L29.6369 11.4231C29.6239 11.4242 28.3201 11.5216 26.4161 12.064Z" fill="#5928B1"></path><path d="M29.9877 8.2691C29.4531 7.81917 28.9191 7.46312 28.9138 7.45957L28.8816 7.43857L28.8437 7.44304C28.8293 7.4449 27.3887 7.62215 25.4047 8.18742C21.8548 9.19845 17.0808 11.2721 14.4958 15.4062C13.2678 17.2842 14.2561 19.5312 14.2561 19.5312L14.2263 18.9593C14.2231 18.8986 14.0535 12.8405 26.4715 9.30267C27.5585 8.99294 28.7258 8.7076 29.9418 8.45377L30.1547 8.40945L29.9877 8.2691Z" fill="#764BC4"></path><path d="M30.7381 9.06011C30.7221 9.0618 29.0885 9.23566 26.8125 9.88384C24.4039 10.5702 20.8965 11.9009 17.868 14.3423C16.0822 15.7297 14.9519 17.4034 14.7669 18.9346C14.6761 19.6819 15.5519 21.2681 15.5519 21.2681L15.3677 20.7047C15.3593 20.679 14.5767 18.1127 18.5425 15.1351C20.7646 13.4663 23.0804 12.3242 25.8298 11.541C27.2472 11.1373 28.6053 10.872 30.1066 10.5915L30.1594 10.5816L30.1823 10.5326C30.2957 10.2895 30.8366 9.22454 30.8422 9.21389L30.9299 9.0405L30.7381 9.06011Z" fill="#764BC4"></path><path d="M13.3821 16.8516C13.5317 14.4471 15.3527 12.2254 18.7986 10.2461C20.6145 9.1123 22.6444 8.22154 24.8316 7.59837C26.6867 7.06986 28.2548 6.91206 28.2548 6.91206L26.9937 6C26.9821 6.00139 25.8198 6.14421 24.1588 6.61746C13.5082 9.65162 12.1883 14.8794 12.3061 16.9808C12.5124 20.6446 16.8267 23.2502 16.8267 23.2502C16.8267 23.2502 13.1594 20.4343 13.3821 16.8516Z" fill="#BBA5E1"></path><path d="M13.514 27.936C15.8358 27.2745 19.2616 25.8911 22.3998 23.0553C25.5534 20.0872 23.4125 17.4402 23.3903 17.4139C23.3903 17.4139 24.5461 19.5454 21.7508 22.1717C21.7153 22.2027 18.147 25.2844 12.9574 26.7627C12.2957 26.9512 11.6269 27.1081 10.9693 27.229L10.9236 27.2373L10.0881 28.5914L10.2932 28.5769C10.3062 28.5758 11.61 28.4784 13.514 27.936Z" fill="#5928B1"></path><path d="M9.94242 31.7309C10.477 32.1808 11.0109 32.5369 11.0163 32.5404L11.0485 32.5614L11.0864 32.5569C11.1008 32.5551 12.5414 32.3778 14.5254 31.8126C18.0752 30.8015 22.8493 28.7279 25.4344 24.5938C26.6623 22.7158 25.674 20.4688 25.674 20.4688L25.7037 21.0407C25.707 21.1014 25.8766 27.1595 13.4586 30.6973C12.3716 31.007 11.2042 31.2924 9.98827 31.5462L9.77539 31.5905L9.94242 31.7309Z" fill="#764BC4"></path><path d="M9.19179 30.9399C9.20783 30.9382 10.8415 30.7643 13.1174 30.1161C15.5261 29.4298 19.0334 28.099 22.0619 25.6576C23.8478 24.2703 24.978 22.5966 25.1631 21.0654C25.2538 20.3181 24.3781 18.7319 24.3781 18.7319L24.5622 19.2953C24.5706 19.3209 25.3532 21.8873 21.3874 24.8649C19.1653 26.5337 16.8495 27.6758 14.1001 28.4589C12.6828 28.8627 11.3247 29.128 9.82338 29.4085L9.77051 29.4184L9.74758 29.4674C9.63419 29.7105 9.09337 30.7754 9.08772 30.7861L9 30.9595L9.19179 30.9399Z" fill="#764BC4"></path><path d="M26.548 23.1484C26.3984 25.5529 24.5774 27.7746 21.1315 29.7539C19.3156 30.8877 17.2857 31.7784 15.0984 32.4016C13.2434 32.9301 11.6753 33.0879 11.6753 33.0879L12.9363 34C12.948 33.9986 14.1103 33.8558 15.7712 33.3825C26.4219 30.3484 27.7418 25.1206 27.624 23.0192C27.4177 19.3554 23.1033 16.7498 23.1033 16.7498C23.1033 16.7498 26.7707 19.5657 26.548 23.1484Z" fill="#BBA5E1"></path></svg>