<svg width="32" height="33" viewBox="0 0 32 33" fill="none" xmlns="http://www.w3.org/2000/svg">
<path d="M15.9915 0.933106C12.86 0.933106 9.79879 1.86171 7.19502 3.6015C4.59124 5.34129 2.56184 7.81412 1.36345 10.7073C0.165063 13.6004 -0.148489 16.784 0.462443 19.8554C1.07338 22.9267 2.58136 25.748 4.79569 27.9623C7.01002 30.1766 9.83125 31.6846 12.9026 32.2955C15.974 32.9065 19.1575 32.5929 22.0507 31.3945C24.9439 30.1961 27.4167 28.1667 29.1565 25.563C30.8963 22.9592 31.8249 19.898 31.8249 16.7664C31.8251 14.6871 31.4156 12.6281 30.62 10.7071C29.8244 8.78601 28.6581 7.04049 27.1878 5.5702C25.7175 4.0999 23.972 2.93363 22.0509 2.138C20.1298 1.34236 18.0709 0.932933 15.9915 0.933106ZM21.0258 24.9245C20.9665 25.0723 20.8763 25.2057 20.7613 25.3158C20.6463 25.4258 20.509 25.51 20.3588 25.5627C20.2086 25.6155 20.0488 25.6354 19.8902 25.6213C19.7316 25.6073 19.5779 25.5594 19.4393 25.4811L15.141 22.1412L12.3824 24.6863C12.3184 24.7336 12.2435 24.764 12.1646 24.7748C12.0858 24.7856 12.0055 24.7763 11.9311 24.7479L12.46 20.0162L12.4769 20.0296L12.4877 19.9362C12.4877 19.9362 20.2223 12.8943 20.5374 12.5943C20.8564 12.295 20.7511 12.2301 20.7511 12.2301C20.7693 11.8651 20.1787 12.2301 20.1787 12.2301L9.93054 18.8232L5.66268 17.3697C5.66268 17.3697 5.00718 17.1346 4.94544 16.6176C4.88052 16.1046 5.68404 15.8259 5.68404 15.8259L22.6526 9.08488C22.6526 9.08488 24.0475 8.46339 24.0475 9.49261L21.0258 24.9245Z" fill="white"/>
</svg>
