<svg viewBox="0 0 40 40" focusable="false" class="chakra-icon css-1pckyyl" aria-hidden="true" xmlns="http://www.w3.org/2000/svg"><circle cx="20" cy="20" r="18" fill="white"></circle><path fill-rule="evenodd" clip-rule="evenodd" d="M20 40C31.0457 40 40 31.0457 40 20C40 8.9543 31.0457 0 20 0C8.95435 0 0 8.9543 0 20C0 31.0457 8.95435 40 20 40ZM18.3744 10.4029C18.0906 10.4067 17.8066 10.4105 17.5227 10.4105L17.5386 10.3754C17.2417 10.3754 16.9446 10.3691 16.6478 10.3627C15.9468 10.3477 15.2476 10.3327 14.5562 10.4017C13.9304 10.476 13.328 10.6835 12.7894 11.0105C12.4071 11.2404 12.0741 11.5515 11.7405 11.8633C11.5597 12.0322 11.3787 12.2013 11.1895 12.3579C10.0508 13.2982 9.76843 14.4632 10.3737 15.786C10.828 16.7825 10.9894 17.7175 10.4403 18.7404C10.2902 19.0201 10.2686 19.3753 10.2473 19.7224C10.2412 19.8215 10.2352 19.9199 10.2263 20.0158C9.92542 23.2029 10.8557 26.1709 11.7849 29.1355C11.8639 29.3874 11.9429 29.6392 12.021 29.8912C12.4824 31.3737 13.3754 31.9 14.8772 31.5491C15.1907 31.4764 15.5045 31.4048 15.8185 31.3331C17.1489 31.0294 18.4807 30.7254 19.7894 30.3421C22.0526 29.6789 24.1754 28.6947 25.714 26.8333C26.0564 26.3781 26.5645 26.0761 27.1281 25.993C27.2551 25.9719 27.3823 25.9519 27.5095 25.9318C27.7847 25.8885 28.0598 25.8452 28.3333 25.7912C29.4227 25.5772 30.0754 24.8912 30.3368 23.8386C30.4109 23.5446 30.4597 23.2438 30.5084 22.9432C30.567 22.5817 30.6255 22.2206 30.728 21.8719C31.0298 20.8579 30.7649 20 30.2385 19.1351C29.7754 18.3763 29.3293 17.6075 28.8833 16.8386C28.4373 16.0697 27.9912 15.3009 27.5281 14.5421C27.3879 14.342 27.3042 14.1081 27.2854 13.8646C27.2666 13.6212 27.3134 13.3771 27.421 13.1579C27.7438 12.4105 28.0262 11.6456 28.2982 10.8772C28.6842 9.76666 28.2192 9.01579 27.0702 8.90877C26.7023 8.87546 26.3323 8.856 25.9623 8.83656C25.3387 8.80379 24.7156 8.77103 24.1035 8.67194C22.9579 8.48772 22.0929 8.74562 21.5543 9.83333C21.3245 10.2965 20.9631 10.4632 20.4139 10.4281C19.7355 10.3847 19.0552 10.3938 18.3744 10.4029ZM25.6929 10.8097C25.8917 10.8265 26.1171 10.8456 26.3824 10.8702C24.4333 13.3018 25.4386 15.3193 26.8385 17.3088C27.0138 17.5594 27.1566 17.8361 27.2988 18.1118C27.4943 18.4906 27.6887 18.8674 27.9648 19.1719C29.1365 20.4637 28.7739 21.8582 28.4092 23.2613L28.3859 23.3509C28.356 23.4171 28.3181 23.4793 28.2732 23.536C28.2427 23.5745 28.209 23.6105 28.1724 23.6436C28.0818 23.7254 27.9753 23.7876 27.8596 23.8263C27.5259 23.9321 27.1808 23.998 26.8315 24.0228C25.6807 24.1579 24.7999 24.5035 24.0474 25.6017C23.0421 27.0702 21.2999 27.7368 19.6122 28.2333C18.4045 28.5896 17.1744 28.8711 15.8685 29.1698C15.2775 29.3051 14.6709 29.4438 14.0438 29.5947C13.8749 28.8873 13.6995 28.1845 13.5245 27.4839C13.1149 25.8423 12.7083 24.2131 12.3947 22.5667C12.1052 21.0175 12.1631 19.4386 13.0964 18.0175C13.228 17.8035 13.1719 17.4017 13.0964 17.114C12.9672 16.5179 12.7682 15.939 12.5034 15.3895C12.1052 14.6491 12.3842 14.2386 12.9105 13.6947C13.8842 12.7053 14.9543 12.3105 16.3403 12.414C17.9427 12.526 19.5505 12.5371 21.1543 12.4474C21.6895 12.4193 22.4403 12.1105 22.6771 11.693C23.1859 10.8 23.8368 10.5895 24.7438 10.714C25.0265 10.7533 25.3108 10.7773 25.6929 10.8097Z" fill="#916ADC"></path></svg>