<?xml version="1.0" encoding="UTF-8"?>
<svg width="40px" height="40px" viewBox="0 0 40 40" version="1.1" xmlns="http://www.w3.org/2000/svg" xmlns:xlink="http://www.w3.org/1999/xlink">
    <!-- Generator: Sketch 63 (92445) - https://sketch.com -->
    <title>logo</title>
    <desc>Created with Sketch.</desc>
    <defs>
        <linearGradient x1="9.65866815%" y1="0%" x2="93.3268229%" y2="91.2248884%" id="linearGradient-1">
            <stop stop-color="#FEEF2E" offset="0%"></stop>
            <stop stop-color="#5CFF98" offset="100%"></stop>
        </linearGradient>
        <rect id="path-2" x="0" y="0" width="40" height="40" rx="7.69230769"></rect>
        <linearGradient x1="11.9595865%" y1="0%" x2="78.3365885%" y2="100%" id="linearGradient-3">
            <stop stop-color="#FEEF2E" offset="0%"></stop>
            <stop stop-color="#5CFF98" offset="100%"></stop>
        </linearGradient>
        <path d="M13.3333333,-9.89050112e-14 L13.3333333,22.8571429 L7.61904762,22.8571429 L7.61904762,5.71428571 L0,5.71428571 L0,-9.89050112e-14 L13.3333333,-9.89050112e-14 Z M19.9997886,-1.15336312e-13 C21.5779072,-1.15336312e-13 22.8571429,1.27923567 22.8571429,2.85693148 C22.8571429,4.43462729 21.5779072,5.71386297 19.9997886,5.71386297 C18.4220928,5.71386297 17.1428571,4.43462729 17.1428571,2.85693148 C17.1428571,1.27923567 18.4220928,-1.15336312e-13 19.9997886,-1.15336312e-13 Z" id="path-4"></path>
    </defs>
    <g id="页面-1" stroke="none" stroke-width="1" fill="none" fill-rule="evenodd">
        <g id="首页" transform="translate(-286.000000, -19.000000)">
            <rect fill="#FFFFFF" x="0" y="0" width="1920" height="3530"></rect>
            <rect id="矩形" fill="#FFFFFF" x="0" y="0" width="1920" height="78"></rect>
            <rect id="矩形备份-2" fill="#FFFFFF" x="285" y="7" width="1350" height="64"></rect>
            <g id="编组-22" transform="translate(286.000000, 19.000000)">
                <g id="矩形">
                    <use fill="url(#linearGradient-1)" xlink:href="#path-2"></use>
                    <use fill="#222222" xlink:href="#path-2"></use>
                </g>
                <g id="编组-28" transform="translate(8.571429, 8.571429)">
                    <g id="形状结合">
                        <use fill="url(#linearGradient-3)" xlink:href="#path-4"></use>
                        <use fill="#FFFFFF" xlink:href="#path-4"></use>
                    </g>
                </g>
            </g>
        </g>
    </g>
</svg>