<svg width="30" height="25" viewBox="0 0 30 25" fill="none" xmlns="http://www.w3.org/2000/svg">
<path d="M30 3.46643C28.8725 3.95557 27.6801 4.27892 26.46 4.42643C27.7473 3.65741 28.7119 2.4476 29.175 1.02143C27.9653 1.74152 26.6411 2.24887 25.26 2.52143C24.3368 1.52029 23.1075 0.853872 21.7647 0.626705C20.422 0.399538 19.0418 0.624465 17.8407 1.26621C16.6396 1.90796 15.6854 2.93022 15.1279 4.17268C14.5703 5.41514 14.4409 6.80751 14.76 8.13143C12.3141 8.00772 9.92166 7.37086 7.73798 6.26222C5.5543 5.15358 3.62827 3.59797 2.085 1.69643C1.54371 2.64168 1.25928 3.71216 1.26 4.80143C1.25808 5.813 1.50633 6.80935 1.98263 7.70177C2.45894 8.5942 3.14853 9.35499 3.99 9.91643C3.01197 9.88982 2.05483 9.62738 1.2 9.15143V9.22643C1.20733 10.6438 1.70399 12.0151 2.60597 13.1084C3.50795 14.2017 4.75988 14.9499 6.15 15.2264C5.61488 15.3893 5.05931 15.4751 4.5 15.4814C4.11284 15.4769 3.72663 15.4418 3.345 15.3764C3.74086 16.5956 4.50693 17.6611 5.53661 18.4247C6.56629 19.1882 7.80836 19.6118 9.09 19.6364C6.9258 21.3393 4.25383 22.2687 1.5 22.2764C0.998603 22.2781 0.497603 22.248 0 22.1864C2.81164 24.0018 6.08822 24.9655 9.435 24.9614C11.7445 24.9854 14.0357 24.549 16.1747 23.6775C18.3136 22.8061 20.2575 21.5173 21.8928 19.8862C23.5281 18.2551 24.8219 16.3145 25.6988 14.1778C26.5757 12.0411 27.0181 9.75102 27 7.44143C27 7.18643 27 6.91643 27 6.64643C28.177 5.76864 29.1922 4.69257 30 3.46643Z" fill="white"/>
</svg>
