<svg width="36" height="25" viewBox="0 0 36 25" fill="none" xmlns="http://www.w3.org/2000/svg">
<path d="M35.4176 9.14062C35.4959 6.87432 35.0003 4.62498 33.9768 2.60145C33.2823 1.77115 32.3186 1.21083 31.2534 1.01812C26.8478 0.618369 22.424 0.454524 18.0009 0.527288C13.594 0.451222 9.18606 0.60978 4.79594 1.00229C3.92799 1.16017 3.12476 1.56729 2.48427 2.17395C1.05927 3.48812 0.900938 5.73645 0.742604 7.63646C0.512882 11.0526 0.512882 14.4803 0.742604 17.8965C0.78841 18.9658 0.947636 20.0274 1.2176 21.0631C1.40851 21.8628 1.79477 22.6027 2.34177 23.2165C2.98661 23.8553 3.80855 24.2855 4.70094 24.4515C8.11447 24.8728 11.5539 25.0474 14.9926 24.974C20.5343 25.0531 25.3951 24.974 31.1426 24.5306C32.0569 24.3749 32.902 23.9441 33.5651 23.2956C34.0084 22.8522 34.3395 22.3094 34.5309 21.7123C35.0972 19.9748 35.3753 18.1563 35.3543 16.329C35.4176 15.4423 35.4176 10.0906 35.4176 9.14062ZM14.4226 17.279V7.47812L23.7959 12.4023C21.1676 13.859 17.7001 15.5056 14.4226 17.279Z" fill="white"/>
</svg>
